<?xml version="1.0" encoding="UTF-8"?>
<svg xmlns="http://www.w3.org/2000/svg" version="1.1" width="100" height="100" viewBox="0 0 100 100"><rect x="0" y="0" width="100" height="100" fill="#ffffff"/><g transform="scale(3.448)"><g transform="translate(0,0)"><path fill-rule="evenodd" d="M10 0L10 2L11 2L11 0ZM12 0L12 1L13 1L13 2L12 2L12 4L13 4L13 3L14 3L14 4L17 4L17 5L15 5L15 6L14 6L14 8L15 8L15 9L12 9L12 7L13 7L13 5L11 5L11 6L10 6L10 4L11 4L11 3L8 3L8 4L9 4L9 5L8 5L8 7L9 7L9 8L6 8L6 9L8 9L8 15L7 15L7 14L6 14L6 15L5 15L5 13L7 13L7 12L3 12L3 13L2 13L2 14L0 14L0 15L1 15L1 16L0 16L0 21L1 21L1 17L3 17L3 16L4 16L4 18L3 18L3 19L2 19L2 20L3 20L3 21L4 21L4 20L5 20L5 19L8 19L8 20L6 20L6 21L8 21L8 23L10 23L10 22L9 22L9 21L8 21L8 20L9 20L9 18L11 18L11 17L12 17L12 18L13 18L13 19L12 19L12 21L13 21L13 20L14 20L14 21L19 21L19 20L20 20L20 22L18 22L18 23L19 23L19 24L15 24L15 23L16 23L16 22L15 22L15 23L14 23L14 24L15 24L15 25L12 25L12 23L13 23L13 22L11 22L11 25L10 25L10 24L8 24L8 29L9 29L9 27L10 27L10 26L11 26L11 25L12 25L12 26L13 26L13 27L12 27L12 29L13 29L13 28L14 28L14 29L20 29L20 28L22 28L22 27L23 27L23 29L24 29L24 28L25 28L25 26L24 26L24 25L27 25L27 28L26 28L26 29L27 29L27 28L28 28L28 26L29 26L29 25L27 25L27 24L28 24L28 22L29 22L29 21L28 21L28 20L29 20L29 19L27 19L27 20L25 20L25 19L26 19L26 18L29 18L29 17L27 17L27 16L25 16L25 13L24 13L24 12L26 12L26 13L27 13L27 14L26 14L26 15L27 15L27 14L29 14L29 13L27 13L27 12L26 12L26 11L28 11L28 10L29 10L29 9L28 9L28 8L27 8L27 9L28 9L28 10L26 10L26 11L25 11L25 9L26 9L26 8L25 8L25 9L24 9L24 8L23 8L23 9L22 9L22 8L21 8L21 9L19 9L19 8L20 8L20 7L21 7L21 5L20 5L20 4L21 4L21 2L20 2L20 4L19 4L19 1L20 1L20 0L19 0L19 1L18 1L18 3L16 3L16 2L17 2L17 1L16 1L16 0L15 0L15 1L14 1L14 0ZM8 1L8 2L9 2L9 1ZM14 2L14 3L15 3L15 2ZM17 5L17 7L16 7L16 6L15 6L15 7L16 7L16 8L19 8L19 7L20 7L20 5ZM9 6L9 7L10 7L10 6ZM11 6L11 7L12 7L12 6ZM18 6L18 7L19 7L19 6ZM0 8L0 9L2 9L2 11L3 11L3 10L4 10L4 11L5 11L5 10L4 10L4 9L5 9L5 8ZM10 8L10 9L9 9L9 12L11 12L11 13L9 13L9 14L13 14L13 15L12 15L12 17L15 17L15 18L16 18L16 19L14 19L14 20L16 20L16 19L17 19L17 20L18 20L18 19L20 19L20 20L24 20L24 19L23 19L23 18L24 18L24 17L25 17L25 18L26 18L26 17L25 17L25 16L24 16L24 15L22 15L22 14L21 14L21 13L20 13L20 14L19 14L19 13L18 13L18 14L17 14L17 13L14 13L14 12L16 12L16 11L14 11L14 12L13 12L13 13L12 13L12 11L13 11L13 10L12 10L12 9L11 9L11 8ZM10 9L10 11L11 11L11 9ZM15 9L15 10L18 10L18 11L17 11L17 12L21 12L21 11L20 11L20 10L19 10L19 9ZM6 10L6 11L7 11L7 10ZM22 10L22 11L23 11L23 10ZM0 11L0 13L1 13L1 11ZM22 12L22 13L23 13L23 14L24 14L24 13L23 13L23 12ZM2 14L2 15L3 15L3 14ZM15 14L15 15L14 15L14 16L15 16L15 17L16 17L16 18L17 18L17 19L18 19L18 18L17 18L17 17L19 17L19 18L20 18L20 19L22 19L22 18L23 18L23 17L24 17L24 16L23 16L23 17L22 17L22 16L21 16L21 14L20 14L20 16L17 16L17 17L16 17L16 16L15 16L15 15L17 15L17 14ZM18 14L18 15L19 15L19 14ZM4 15L4 16L5 16L5 15ZM6 15L6 16L7 16L7 15ZM8 15L8 17L5 17L5 18L9 18L9 17L11 17L11 15L10 15L10 16L9 16L9 15ZM20 16L20 18L22 18L22 17L21 17L21 16ZM21 21L21 24L24 24L24 21ZM25 21L25 24L27 24L27 22L28 22L28 21L27 21L27 22L26 22L26 21ZM22 22L22 23L23 23L23 22ZM19 24L19 25L18 25L18 26L17 26L17 25L15 25L15 26L16 26L16 27L14 27L14 28L20 28L20 27L22 27L22 26L23 26L23 27L24 27L24 26L23 26L23 25L22 25L22 26L21 26L21 25L20 25L20 24ZM9 25L9 26L10 26L10 25ZM19 25L19 26L18 26L18 27L20 27L20 25ZM10 28L10 29L11 29L11 28ZM0 0L0 7L7 7L7 0ZM1 1L1 6L6 6L6 1ZM2 2L2 5L5 5L5 2ZM22 0L22 7L29 7L29 0ZM23 1L23 6L28 6L28 1ZM24 2L24 5L27 5L27 2ZM0 22L0 29L7 29L7 22ZM1 23L1 28L6 28L6 23ZM2 24L2 27L5 27L5 24Z" fill="#000000"/></g></g></svg>
