<?xml version="1.0" encoding="UTF-8"?>
<svg xmlns="http://www.w3.org/2000/svg" version="1.1" width="100" height="100" viewBox="0 0 100 100"><rect x="0" y="0" width="100" height="100" fill="#ffffff"/><g transform="scale(3.448)"><g transform="translate(0,0)"><path fill-rule="evenodd" d="M8 0L8 4L10 4L10 3L11 3L11 4L12 4L12 2L11 2L11 0ZM12 0L12 1L13 1L13 0ZM14 0L14 1L15 1L15 0ZM20 0L20 1L19 1L19 2L18 2L18 1L16 1L16 2L15 2L15 3L14 3L14 2L13 2L13 3L14 3L14 4L13 4L13 5L11 5L11 6L10 6L10 7L9 7L9 5L8 5L8 7L9 7L9 8L10 8L10 7L11 7L11 6L12 6L12 8L11 8L11 9L7 9L7 8L4 8L4 10L3 10L3 9L2 9L2 8L0 8L0 9L2 9L2 10L3 10L3 11L4 11L4 12L5 12L5 13L8 13L8 14L6 14L6 15L5 15L5 14L3 14L3 15L5 15L5 16L4 16L4 17L7 17L7 18L6 18L6 19L5 19L5 18L4 18L4 20L6 20L6 21L8 21L8 22L9 22L9 23L8 23L8 25L9 25L9 24L10 24L10 25L12 25L12 26L11 26L11 27L10 27L10 26L9 26L9 27L8 27L8 29L11 29L11 28L12 28L12 29L14 29L14 27L16 27L16 29L19 29L19 28L18 28L18 27L17 27L17 25L18 25L18 26L19 26L19 27L20 27L20 29L22 29L22 28L23 28L23 29L24 29L24 28L23 28L23 27L24 27L24 25L25 25L25 26L27 26L27 29L28 29L28 28L29 28L29 25L28 25L28 24L29 24L29 21L28 21L28 20L29 20L29 17L26 17L26 18L25 18L25 17L24 17L24 15L22 15L22 16L23 16L23 17L21 17L21 13L20 13L20 19L19 19L19 17L18 17L18 15L19 15L19 13L18 13L18 12L19 12L19 10L18 10L18 11L17 11L17 9L20 9L20 11L22 11L22 12L23 12L23 13L22 13L22 14L23 14L23 13L24 13L24 14L25 14L25 15L27 15L27 13L24 13L24 11L25 11L25 9L26 9L26 10L27 10L27 9L28 9L28 11L27 11L27 12L28 12L28 11L29 11L29 8L25 8L25 9L24 9L24 8L23 8L23 9L22 9L22 10L21 10L21 9L20 9L20 8L21 8L21 6L20 6L20 5L21 5L21 3L19 3L19 2L21 2L21 0ZM9 2L9 3L10 3L10 2ZM16 2L16 5L15 5L15 7L16 7L16 8L15 8L15 9L13 9L13 8L14 8L14 6L13 6L13 8L12 8L12 9L11 9L11 10L8 10L8 12L9 12L9 13L10 13L10 15L11 15L11 16L12 16L12 17L11 17L11 18L9 18L9 17L8 17L8 16L9 16L9 15L6 15L6 16L7 16L7 17L8 17L8 18L7 18L7 19L6 19L6 20L7 20L7 19L8 19L8 18L9 18L9 19L10 19L10 21L9 21L9 20L8 20L8 21L9 21L9 22L10 22L10 21L11 21L11 24L12 24L12 25L13 25L13 26L15 26L15 25L17 25L17 24L16 24L16 23L17 23L17 22L18 22L18 25L19 25L19 26L20 26L20 27L23 27L23 25L21 25L21 26L20 26L20 25L19 25L19 21L17 21L17 20L16 20L16 19L17 19L17 18L18 18L18 17L17 17L17 15L18 15L18 13L16 13L16 12L15 12L15 11L14 11L14 13L16 13L16 14L17 14L17 15L15 15L15 14L13 14L13 13L12 13L12 12L13 12L13 11L12 11L12 12L11 12L11 13L10 13L10 11L11 11L11 10L12 10L12 9L13 9L13 10L15 10L15 9L17 9L17 7L18 7L18 6L19 6L19 7L20 7L20 6L19 6L19 5L20 5L20 4L19 4L19 3L17 3L17 2ZM17 4L17 5L19 5L19 4ZM16 6L16 7L17 7L17 6ZM5 9L5 10L7 10L7 9ZM23 10L23 11L24 11L24 10ZM1 11L1 12L0 12L0 13L1 13L1 14L0 14L0 18L1 18L1 17L3 17L3 16L2 16L2 11ZM5 11L5 12L7 12L7 11ZM28 13L28 16L29 16L29 13ZM12 15L12 16L13 16L13 17L12 17L12 18L11 18L11 20L12 20L12 21L13 21L13 22L15 22L15 23L14 23L14 24L13 24L13 23L12 23L12 24L13 24L13 25L15 25L15 23L16 23L16 22L17 22L17 21L14 21L14 19L16 19L16 18L17 18L17 17L15 17L15 15L14 15L14 16L13 16L13 15ZM13 17L13 18L15 18L15 17ZM23 17L23 19L24 19L24 20L25 20L25 18L24 18L24 17ZM2 18L2 19L3 19L3 18ZM26 18L26 21L25 21L25 22L26 22L26 23L25 23L25 25L27 25L27 26L28 26L28 25L27 25L27 22L26 22L26 21L27 21L27 18ZM12 19L12 20L13 20L13 19ZM18 19L18 20L19 20L19 19ZM20 19L20 20L22 20L22 19ZM0 20L0 21L3 21L3 20ZM21 21L21 24L24 24L24 21ZM22 22L22 23L23 23L23 22ZM12 27L12 28L13 28L13 27ZM25 28L25 29L26 29L26 28ZM0 0L0 7L7 7L7 0ZM1 1L1 6L6 6L6 1ZM2 2L2 5L5 5L5 2ZM22 0L22 7L29 7L29 0ZM23 1L23 6L28 6L28 1ZM24 2L24 5L27 5L27 2ZM0 22L0 29L7 29L7 22ZM1 23L1 28L6 28L6 23ZM2 24L2 27L5 27L5 24Z" fill="#000000"/></g></g></svg>
