<?xml version="1.0" encoding="UTF-8"?>
<svg xmlns="http://www.w3.org/2000/svg" version="1.1" width="100" height="100" viewBox="0 0 100 100"><rect x="0" y="0" width="100" height="100" fill="#ffffff"/><g transform="scale(3.448)"><g transform="translate(0,0)"><path fill-rule="evenodd" d="M8 0L8 1L9 1L9 2L8 2L8 5L9 5L9 4L11 4L11 5L10 5L10 10L9 10L9 8L8 8L8 9L7 9L7 8L6 8L6 9L7 9L7 10L6 10L6 11L7 11L7 10L9 10L9 12L8 12L8 13L7 13L7 12L6 12L6 13L7 13L7 14L5 14L5 12L4 12L4 10L5 10L5 9L4 9L4 8L0 8L0 11L1 11L1 9L2 9L2 13L0 13L0 14L1 14L1 15L0 15L0 17L2 17L2 16L1 16L1 15L2 15L2 14L3 14L3 15L4 15L4 14L5 14L5 15L7 15L7 16L6 16L6 17L7 17L7 18L3 18L3 19L9 19L9 18L10 18L10 21L9 21L9 20L6 20L6 21L8 21L8 22L9 22L9 23L10 23L10 24L11 24L11 25L10 25L10 26L9 26L9 25L8 25L8 29L9 29L9 28L10 28L10 26L12 26L12 28L11 28L11 29L12 29L12 28L14 28L14 27L15 27L15 26L16 26L16 28L17 28L17 26L18 26L18 29L22 29L22 26L21 26L21 25L24 25L24 26L25 26L25 27L23 27L23 28L24 28L24 29L25 29L25 27L26 27L26 26L27 26L27 24L26 24L26 23L27 23L27 22L26 22L26 21L28 21L28 22L29 22L29 20L27 20L27 19L28 19L28 16L27 16L27 18L26 18L26 17L25 17L25 16L26 16L26 15L27 15L27 14L28 14L28 15L29 15L29 11L28 11L28 12L26 12L26 9L27 9L27 8L24 8L24 9L22 9L22 8L21 8L21 6L20 6L20 5L21 5L21 3L20 3L20 2L21 2L21 0L18 0L18 1L20 1L20 2L18 2L18 3L17 3L17 2L15 2L15 3L14 3L14 5L13 5L13 3L12 3L12 4L11 4L11 2L14 2L14 0L12 0L12 1L11 1L11 0L10 0L10 1L9 1L9 0ZM15 0L15 1L16 1L16 0ZM19 3L19 4L16 4L16 5L14 5L14 6L13 6L13 5L12 5L12 6L11 6L11 8L12 8L12 6L13 6L13 8L14 8L14 9L15 9L15 10L14 10L14 11L11 11L11 13L9 13L9 16L10 16L10 18L11 18L11 19L12 19L12 20L11 20L11 21L10 21L10 23L14 23L14 22L15 22L15 24L12 24L12 26L13 26L13 27L14 27L14 26L15 26L15 24L16 24L16 25L17 25L17 24L18 24L18 22L20 22L20 21L19 21L19 19L20 19L20 18L21 18L21 17L22 17L22 20L23 20L23 18L25 18L25 17L24 17L24 15L25 15L25 10L22 10L22 11L20 11L20 10L21 10L21 9L20 9L20 10L19 10L19 8L20 8L20 6L19 6L19 8L18 8L18 9L17 9L17 11L16 11L16 8L17 8L17 7L18 7L18 5L19 5L19 4L20 4L20 3ZM8 6L8 7L9 7L9 6ZM14 6L14 7L15 7L15 8L16 8L16 7L17 7L17 6L16 6L16 7L15 7L15 6ZM28 8L28 10L29 10L29 8ZM11 9L11 10L12 10L12 9ZM15 11L15 12L14 12L14 14L13 14L13 12L12 12L12 13L11 13L11 14L10 14L10 15L11 15L11 16L12 16L12 17L13 17L13 16L12 16L12 14L13 14L13 15L14 15L14 18L13 18L13 21L15 21L15 19L16 19L16 23L17 23L17 21L18 21L18 19L16 19L16 18L17 18L17 16L16 16L16 15L17 15L17 14L18 14L18 16L19 16L19 17L18 17L18 18L19 18L19 17L21 17L21 15L22 15L22 14L23 14L23 15L24 15L24 11L23 11L23 13L22 13L22 12L21 12L21 13L22 13L22 14L20 14L20 13L19 13L19 14L18 14L18 12L16 12L16 11ZM16 13L16 14L14 14L14 15L16 15L16 14L17 14L17 13ZM19 15L19 16L20 16L20 15ZM3 16L3 17L5 17L5 16ZM7 16L7 17L8 17L8 18L9 18L9 17L8 17L8 16ZM15 16L15 17L16 17L16 16ZM0 18L0 19L1 19L1 18ZM24 19L24 20L25 20L25 21L26 21L26 19ZM1 20L1 21L5 21L5 20ZM21 21L21 24L24 24L24 21ZM22 22L22 23L23 23L23 22ZM19 23L19 25L20 25L20 23ZM28 23L28 24L29 24L29 23ZM13 25L13 26L14 26L14 25ZM25 25L25 26L26 26L26 25ZM28 25L28 27L27 27L27 29L28 29L28 27L29 27L29 25ZM19 26L19 28L20 28L20 27L21 27L21 26ZM0 0L0 7L7 7L7 0ZM1 1L1 6L6 6L6 1ZM2 2L2 5L5 5L5 2ZM22 0L22 7L29 7L29 0ZM23 1L23 6L28 6L28 1ZM24 2L24 5L27 5L27 2ZM0 22L0 29L7 29L7 22ZM1 23L1 28L6 28L6 23ZM2 24L2 27L5 27L5 24Z" fill="#000000"/></g></g></svg>
