<?xml version="1.0" encoding="UTF-8"?>
<svg xmlns="http://www.w3.org/2000/svg" version="1.1" width="100" height="100" viewBox="0 0 100 100"><rect x="0" y="0" width="100" height="100" fill="#ffffff"/><g transform="scale(3.448)"><g transform="translate(0,0)"><path fill-rule="evenodd" d="M10 0L10 2L11 2L11 0ZM12 0L12 1L13 1L13 2L12 2L12 4L13 4L13 3L14 3L14 4L17 4L17 5L15 5L15 6L14 6L14 8L15 8L15 9L12 9L12 7L13 7L13 5L11 5L11 6L10 6L10 4L11 4L11 3L8 3L8 4L9 4L9 5L8 5L8 7L9 7L9 8L6 8L6 9L5 9L5 8L0 8L0 9L1 9L1 10L0 10L0 14L1 14L1 16L0 16L0 21L1 21L1 17L2 17L2 19L3 19L3 18L4 18L4 17L2 17L2 13L3 13L3 12L4 12L4 14L3 14L3 16L4 16L4 15L9 15L9 17L8 17L8 19L7 19L7 18L6 18L6 17L7 17L7 16L5 16L5 18L6 18L6 19L7 19L7 20L4 20L4 21L7 21L7 20L8 20L8 23L9 23L9 24L8 24L8 29L10 29L10 25L12 25L12 26L13 26L13 27L12 27L12 29L13 29L13 28L14 28L14 29L20 29L20 28L22 28L22 27L23 27L23 29L24 29L24 28L25 28L25 26L24 26L24 25L27 25L27 28L26 28L26 29L27 29L27 28L28 28L28 26L29 26L29 25L27 25L27 24L28 24L28 22L29 22L29 21L28 21L28 22L26 22L26 21L27 21L27 20L29 20L29 19L28 19L28 18L29 18L29 16L28 16L28 14L29 14L29 13L28 13L28 12L29 12L29 11L28 11L28 10L29 10L29 9L28 9L28 8L27 8L27 9L28 9L28 10L26 10L26 8L25 8L25 9L24 9L24 8L23 8L23 9L22 9L22 8L21 8L21 5L20 5L20 4L21 4L21 2L19 2L19 3L16 3L16 0L15 0L15 1L14 1L14 0ZM19 0L19 1L20 1L20 0ZM8 1L8 2L9 2L9 1ZM17 1L17 2L18 2L18 1ZM14 2L14 3L15 3L15 2ZM19 3L19 4L20 4L20 3ZM17 5L17 7L16 7L16 6L15 6L15 8L16 8L16 9L15 9L15 10L16 10L16 9L17 9L17 8L19 8L19 9L18 9L18 10L17 10L17 11L16 11L16 13L14 13L14 12L15 12L15 11L14 11L14 12L13 12L13 13L12 13L12 11L13 11L13 10L12 10L12 9L11 9L11 8L10 8L10 9L9 9L9 12L8 12L8 9L6 9L6 10L5 10L5 11L6 11L6 12L8 12L8 13L5 13L5 14L10 14L10 15L11 15L11 14L13 14L13 15L12 15L12 17L11 17L11 18L10 18L10 19L11 19L11 21L10 21L10 22L9 22L9 23L11 23L11 22L13 22L13 23L12 23L12 25L15 25L15 26L16 26L16 27L14 27L14 28L18 28L18 27L19 27L19 28L20 28L20 27L22 27L22 26L23 26L23 27L24 27L24 26L23 26L23 25L22 25L22 26L21 26L21 25L20 25L20 24L19 24L19 25L15 25L15 24L16 24L16 23L15 23L15 22L18 22L18 23L17 23L17 24L18 24L18 23L19 23L19 22L20 22L20 20L24 20L24 18L22 18L22 17L25 17L25 20L27 20L27 19L26 19L26 18L28 18L28 17L25 17L25 16L27 16L27 14L28 14L28 13L27 13L27 14L26 14L26 13L25 13L25 12L28 12L28 11L26 11L26 10L24 10L24 9L23 9L23 10L22 10L22 9L21 9L21 8L20 8L20 5ZM9 6L9 7L10 7L10 6ZM11 6L11 7L12 7L12 6ZM18 6L18 7L19 7L19 6ZM2 9L2 10L1 10L1 11L2 11L2 12L1 12L1 13L2 13L2 12L3 12L3 11L2 11L2 10L3 10L3 9ZM10 9L10 11L11 11L11 9ZM19 9L19 10L18 10L18 12L17 12L17 13L16 13L16 14L15 14L15 15L14 15L14 16L15 16L15 17L12 17L12 18L13 18L13 19L12 19L12 21L13 21L13 20L14 20L14 21L18 21L18 22L19 22L19 21L18 21L18 20L17 20L17 18L15 18L15 17L19 17L19 18L18 18L18 19L19 19L19 20L20 20L20 19L22 19L22 18L20 18L20 16L21 16L21 17L22 17L22 16L21 16L21 14L22 14L22 15L23 15L23 16L25 16L25 15L26 15L26 14L25 14L25 13L24 13L24 12L25 12L25 11L24 11L24 12L23 12L23 13L22 13L22 12L19 12L19 10L20 10L20 11L21 11L21 9ZM6 10L6 11L7 11L7 10ZM9 12L9 13L11 13L11 12ZM17 13L17 15L15 15L15 16L20 16L20 14L21 14L21 13L20 13L20 14L19 14L19 13ZM23 13L23 14L24 14L24 13ZM19 18L19 19L20 19L20 18ZM14 19L14 20L15 20L15 19ZM2 20L2 21L3 21L3 20ZM21 21L21 24L24 24L24 21ZM22 22L22 23L23 23L23 22ZM25 22L25 24L27 24L27 23L26 23L26 22ZM14 23L14 24L15 24L15 23ZM19 25L19 27L20 27L20 25ZM0 0L0 7L7 7L7 0ZM1 1L1 6L6 6L6 1ZM2 2L2 5L5 5L5 2ZM22 0L22 7L29 7L29 0ZM23 1L23 6L28 6L28 1ZM24 2L24 5L27 5L27 2ZM0 22L0 29L7 29L7 22ZM1 23L1 28L6 28L6 23ZM2 24L2 27L5 27L5 24Z" fill="#000000"/></g></g></svg>
