<?xml version="1.0" encoding="UTF-8"?>
<svg xmlns="http://www.w3.org/2000/svg" version="1.1" width="100" height="100" viewBox="0 0 100 100"><rect x="0" y="0" width="100" height="100" fill="#ffffff"/><g transform="scale(3.448)"><g transform="translate(0,0)"><path fill-rule="evenodd" d="M10 0L10 2L11 2L11 0ZM12 0L12 1L13 1L13 2L12 2L12 4L13 4L13 3L14 3L14 4L16 4L16 5L15 5L15 6L14 6L14 8L15 8L15 9L12 9L12 7L13 7L13 5L11 5L11 6L10 6L10 4L11 4L11 3L8 3L8 4L9 4L9 5L8 5L8 7L9 7L9 8L6 8L6 9L8 9L8 10L9 10L9 9L10 9L10 11L11 11L11 9L12 9L12 10L13 10L13 11L12 11L12 13L13 13L13 12L14 12L14 13L16 13L16 14L15 14L15 15L14 15L14 16L15 16L15 17L12 17L12 15L13 15L13 14L9 14L9 13L11 13L11 12L9 12L9 13L7 13L7 12L5 12L5 11L4 11L4 10L5 10L5 8L0 8L0 11L1 11L1 13L0 13L0 14L1 14L1 15L2 15L2 17L1 17L1 16L0 16L0 21L1 21L1 18L2 18L2 19L3 19L3 20L4 20L4 19L5 19L5 21L7 21L7 20L8 20L8 23L9 23L9 22L10 22L10 25L9 25L9 24L8 24L8 29L9 29L9 26L10 26L10 28L11 28L11 25L12 25L12 26L13 26L13 27L12 27L12 29L13 29L13 28L14 28L14 29L20 29L20 28L22 28L22 27L23 27L23 29L24 29L24 28L25 28L25 26L24 26L24 25L27 25L27 28L26 28L26 29L27 29L27 28L28 28L28 26L29 26L29 25L27 25L27 24L28 24L28 22L29 22L29 21L28 21L28 22L27 22L27 24L25 24L25 22L26 22L26 21L27 21L27 20L29 20L29 19L27 19L27 20L25 20L25 18L26 18L26 17L27 17L27 18L29 18L29 17L27 17L27 16L26 16L26 15L28 15L28 14L29 14L29 13L28 13L28 14L25 14L25 13L27 13L27 12L25 12L25 11L24 11L24 12L23 12L23 11L22 11L22 10L23 10L23 9L24 9L24 10L26 10L26 8L25 8L25 9L24 9L24 8L23 8L23 9L22 9L22 8L21 8L21 9L19 9L19 8L20 8L20 7L21 7L21 5L20 5L20 4L21 4L21 3L17 3L17 4L16 4L16 2L17 2L17 1L16 1L16 0L15 0L15 1L14 1L14 0ZM19 0L19 1L20 1L20 2L21 2L21 1L20 1L20 0ZM8 1L8 2L9 2L9 1ZM14 2L14 3L15 3L15 2ZM16 5L16 6L15 6L15 8L16 8L16 6L17 6L17 8L19 8L19 7L20 7L20 5ZM9 6L9 7L10 7L10 6ZM11 6L11 7L12 7L12 6ZM18 6L18 7L19 7L19 6ZM10 8L10 9L11 9L11 8ZM27 8L27 9L28 9L28 10L27 10L27 11L28 11L28 10L29 10L29 9L28 9L28 8ZM15 9L15 10L16 10L16 11L17 11L17 12L16 12L16 13L17 13L17 14L16 14L16 15L17 15L17 16L16 16L16 17L15 17L15 18L16 18L16 20L15 20L15 19L14 19L14 20L13 20L13 21L12 21L12 19L13 19L13 18L12 18L12 17L10 17L10 16L11 16L11 15L9 15L9 14L7 14L7 13L5 13L5 12L4 12L4 11L3 11L3 10L1 10L1 11L3 11L3 12L2 12L2 13L1 13L1 14L3 14L3 12L4 12L4 13L5 13L5 15L3 15L3 16L4 16L4 17L3 17L3 18L4 18L4 17L5 17L5 19L6 19L6 20L7 20L7 19L6 19L6 18L7 18L7 17L8 17L8 16L9 16L9 17L10 17L10 18L8 18L8 19L10 19L10 20L9 20L9 21L11 21L11 22L13 22L13 23L12 23L12 25L15 25L15 26L16 26L16 27L14 27L14 28L20 28L20 27L22 27L22 26L23 26L23 27L24 27L24 26L23 26L23 25L22 25L22 26L21 26L21 25L20 25L20 24L19 24L19 25L15 25L15 24L16 24L16 23L15 23L15 22L20 22L20 20L24 20L24 18L22 18L22 17L26 17L26 16L23 16L23 15L22 15L22 14L21 14L21 13L20 13L20 14L19 14L19 13L17 13L17 12L18 12L18 11L19 11L19 12L21 12L21 11L20 11L20 10L19 10L19 9ZM21 9L21 10L22 10L22 9ZM6 10L6 11L7 11L7 10ZM17 10L17 11L18 11L18 10ZM14 11L14 12L15 12L15 11ZM22 12L22 13L23 13L23 14L24 14L24 13L25 13L25 12L24 12L24 13L23 13L23 12ZM6 14L6 15L7 15L7 14ZM17 14L17 15L18 15L18 14ZM20 14L20 16L17 16L17 17L16 17L16 18L18 18L18 20L16 20L16 21L19 21L19 20L20 20L20 19L22 19L22 18L20 18L20 16L21 16L21 17L22 17L22 16L21 16L21 14ZM5 16L5 17L7 17L7 16ZM18 17L18 18L19 18L19 19L20 19L20 18L19 18L19 17ZM10 18L10 19L11 19L11 18ZM14 20L14 21L15 21L15 20ZM21 21L21 24L24 24L24 21ZM22 22L22 23L23 23L23 22ZM14 23L14 24L15 24L15 23ZM17 23L17 24L18 24L18 23ZM19 25L19 26L18 26L18 27L20 27L20 25ZM0 0L0 7L7 7L7 0ZM1 1L1 6L6 6L6 1ZM2 2L2 5L5 5L5 2ZM22 0L22 7L29 7L29 0ZM23 1L23 6L28 6L28 1ZM24 2L24 5L27 5L27 2ZM0 22L0 29L7 29L7 22ZM1 23L1 28L6 28L6 23ZM2 24L2 27L5 27L5 24Z" fill="#000000"/></g></g></svg>
