<?xml version="1.0" encoding="UTF-8"?>
<svg xmlns="http://www.w3.org/2000/svg" version="1.1" width="100" height="100" viewBox="0 0 100 100"><rect x="0" y="0" width="100" height="100" fill="#ffffff"/><g transform="scale(3.448)"><g transform="translate(0,0)"><path fill-rule="evenodd" d="M8 0L8 1L9 1L9 2L10 2L10 3L11 3L11 1L13 1L13 0L11 0L11 1L9 1L9 0ZM14 0L14 1L16 1L16 2L15 2L15 3L16 3L16 5L17 5L17 6L16 6L16 7L17 7L17 6L18 6L18 7L19 7L19 6L18 6L18 5L20 5L20 7L21 7L21 5L20 5L20 4L21 4L21 0L20 0L20 1L18 1L18 0ZM12 2L12 4L11 4L11 5L10 5L10 4L9 4L9 5L10 5L10 8L9 8L9 6L8 6L8 8L9 8L9 10L8 10L8 9L7 9L7 8L6 8L6 9L7 9L7 10L5 10L5 11L4 11L4 10L2 10L2 8L0 8L0 10L1 10L1 12L0 12L0 14L2 14L2 15L3 15L3 16L2 16L2 17L0 17L0 21L7 21L7 20L6 20L6 19L7 19L7 18L8 18L8 22L9 22L9 24L8 24L8 26L9 26L9 27L8 27L8 29L10 29L10 28L9 28L9 27L10 27L10 26L11 26L11 24L10 24L10 22L11 22L11 20L10 20L10 19L12 19L12 21L14 21L14 24L13 24L13 25L12 25L12 26L13 26L13 25L15 25L15 26L14 26L14 27L12 27L12 28L11 28L11 29L13 29L13 28L15 28L15 29L17 29L17 28L16 28L16 27L18 27L18 29L21 29L21 28L19 28L19 25L20 25L20 26L21 26L21 25L23 25L23 26L24 26L24 27L22 27L22 28L25 28L25 27L26 27L26 28L27 28L27 27L28 27L28 28L29 28L29 23L28 23L28 20L27 20L27 19L29 19L29 18L28 18L28 16L29 16L29 12L28 12L28 13L26 13L26 11L27 11L27 9L24 9L24 10L23 10L23 12L20 12L20 11L21 11L21 10L22 10L22 9L23 9L23 8L22 8L22 9L21 9L21 8L17 8L17 9L16 9L16 8L15 8L15 11L16 11L16 12L18 12L18 13L22 13L22 14L23 14L23 15L21 15L21 14L19 14L19 15L21 15L21 16L18 16L18 17L17 17L17 15L18 15L18 14L17 14L17 15L16 15L16 13L14 13L14 7L15 7L15 6L14 6L14 7L13 7L13 5L12 5L12 4L13 4L13 2ZM16 2L16 3L18 3L18 2ZM19 3L19 4L20 4L20 3ZM14 4L14 5L15 5L15 4ZM17 4L17 5L18 5L18 4ZM11 5L11 7L12 7L12 9L10 9L10 10L9 10L9 11L6 11L6 12L4 12L4 11L3 11L3 13L2 13L2 12L1 12L1 13L2 13L2 14L3 14L3 15L4 15L4 13L6 13L6 14L7 14L7 15L6 15L6 16L3 16L3 18L2 18L2 19L3 19L3 20L4 20L4 19L6 19L6 18L7 18L7 17L6 17L6 16L9 16L9 14L7 14L7 13L6 13L6 12L8 12L8 13L9 13L9 11L10 11L10 10L12 10L12 11L13 11L13 10L12 10L12 9L13 9L13 7L12 7L12 5ZM3 8L3 9L5 9L5 8ZM28 8L28 9L29 9L29 8ZM17 9L17 11L20 11L20 10L19 10L19 9ZM24 10L24 11L25 11L25 10ZM10 12L10 14L13 14L13 13L11 13L11 12ZM23 12L23 14L24 14L24 13L25 13L25 14L26 14L26 15L25 15L25 16L24 16L24 17L23 17L23 16L22 16L22 18L24 18L24 17L25 17L25 16L26 16L26 19L25 19L25 20L26 20L26 19L27 19L27 16L26 16L26 15L27 15L27 14L26 14L26 13L25 13L25 12ZM14 14L14 15L12 15L12 16L11 16L11 15L10 15L10 16L11 16L11 17L10 17L10 18L11 18L11 17L14 17L14 16L16 16L16 15L15 15L15 14ZM4 17L4 18L3 18L3 19L4 19L4 18L6 18L6 17ZM8 17L8 18L9 18L9 17ZM18 17L18 18L17 18L17 19L16 19L16 21L17 21L17 22L16 22L16 23L17 23L17 22L20 22L20 21L17 21L17 20L20 20L20 19L21 19L21 17L20 17L20 19L18 19L18 18L19 18L19 17ZM12 18L12 19L13 19L13 20L14 20L14 19L15 19L15 18ZM22 19L22 20L24 20L24 19ZM9 21L9 22L10 22L10 21ZM21 21L21 24L24 24L24 21ZM12 22L12 23L13 23L13 22ZM22 22L22 23L23 23L23 22ZM25 22L25 25L24 25L24 26L25 26L25 25L27 25L27 26L26 26L26 27L27 27L27 26L28 26L28 23L26 23L26 22ZM18 23L18 24L17 24L17 26L18 26L18 25L19 25L19 23ZM9 25L9 26L10 26L10 25ZM0 0L0 7L7 7L7 0ZM1 1L1 6L6 6L6 1ZM2 2L2 5L5 5L5 2ZM22 0L22 7L29 7L29 0ZM23 1L23 6L28 6L28 1ZM24 2L24 5L27 5L27 2ZM0 22L0 29L7 29L7 22ZM1 23L1 28L6 28L6 23ZM2 24L2 27L5 27L5 24Z" fill="#000000"/></g></g></svg>
