<?xml version="1.0" encoding="UTF-8"?>
<svg xmlns="http://www.w3.org/2000/svg" version="1.1" width="100" height="100" viewBox="0 0 100 100"><rect x="0" y="0" width="100" height="100" fill="#ffffff"/><g transform="scale(3.448)"><g transform="translate(0,0)"><path fill-rule="evenodd" d="M8 0L8 1L9 1L9 2L8 2L8 5L9 5L9 4L11 4L11 5L10 5L10 10L9 10L9 8L8 8L8 10L9 10L9 13L11 13L11 15L9 15L9 14L8 14L8 13L7 13L7 12L8 12L8 11L7 11L7 10L6 10L6 9L7 9L7 8L6 8L6 9L5 9L5 10L6 10L6 11L7 11L7 12L4 12L4 11L3 11L3 10L4 10L4 8L0 8L0 9L1 9L1 10L0 10L0 12L1 12L1 10L2 10L2 13L3 13L3 12L4 12L4 15L3 15L3 14L1 14L1 15L0 15L0 17L1 17L1 16L2 16L2 15L3 15L3 17L2 17L2 18L5 18L5 17L4 17L4 15L5 15L5 13L7 13L7 14L6 14L6 15L7 15L7 16L6 16L6 17L9 17L9 18L8 18L8 19L7 19L7 18L6 18L6 19L4 19L4 20L3 20L3 19L2 19L2 20L1 20L1 21L2 21L2 20L3 20L3 21L4 21L4 20L5 20L5 21L8 21L8 22L9 22L9 25L8 25L8 29L10 29L10 27L11 27L11 26L12 26L12 28L11 28L11 29L12 29L12 28L14 28L14 27L15 27L15 29L17 29L17 28L16 28L16 27L15 27L15 26L17 26L17 25L18 25L18 26L21 26L21 27L20 27L20 28L19 28L19 29L22 29L22 26L21 26L21 25L24 25L24 26L25 26L25 27L23 27L23 28L24 28L24 29L25 29L25 27L26 27L26 26L27 26L27 24L26 24L26 23L25 23L25 22L26 22L26 21L27 21L27 20L28 20L28 17L27 17L27 19L26 19L26 18L24 18L24 17L26 17L26 16L25 16L25 15L24 15L24 12L23 12L23 11L25 11L25 10L26 10L26 11L27 11L27 12L26 12L26 15L27 15L27 16L29 16L29 13L28 13L28 10L29 10L29 8L28 8L28 9L27 9L27 8L24 8L24 10L23 10L23 9L22 9L22 8L21 8L21 9L20 9L20 8L19 8L19 6L20 6L20 7L21 7L21 6L20 6L20 4L19 4L19 3L21 3L21 2L19 2L19 3L16 3L16 2L17 2L17 1L16 1L16 0L15 0L15 1L16 1L16 2L15 2L15 3L14 3L14 5L13 5L13 3L12 3L12 4L11 4L11 2L14 2L14 0L12 0L12 1L11 1L11 0L10 0L10 1L9 1L9 0ZM19 0L19 1L20 1L20 0ZM16 4L16 5L14 5L14 6L13 6L13 5L12 5L12 6L11 6L11 8L12 8L12 6L13 6L13 8L14 8L14 9L15 9L15 10L14 10L14 11L11 11L11 13L12 13L12 12L13 12L13 14L12 14L12 16L9 16L9 15L8 15L8 16L9 16L9 17L10 17L10 19L8 19L8 21L9 21L9 22L10 22L10 23L14 23L14 22L15 22L15 23L16 23L16 22L20 22L20 21L19 21L19 19L20 19L20 18L21 18L21 17L22 17L22 20L23 20L23 19L24 19L24 20L25 20L25 21L26 21L26 19L24 19L24 18L23 18L23 14L22 14L22 13L23 13L23 12L22 12L22 11L23 11L23 10L22 10L22 9L21 9L21 10L22 10L22 11L20 11L20 10L18 10L18 9L17 9L17 10L16 10L16 5L17 5L17 7L18 7L18 5L19 5L19 4ZM8 6L8 7L9 7L9 6ZM14 6L14 7L15 7L15 6ZM11 9L11 10L12 10L12 9ZM26 9L26 10L27 10L27 9ZM17 10L17 11L15 11L15 12L14 12L14 14L13 14L13 15L14 15L14 18L13 18L13 21L15 21L15 20L17 20L17 21L18 21L18 18L19 18L19 17L21 17L21 15L22 15L22 14L20 14L20 13L19 13L19 11L18 11L18 10ZM17 11L17 12L16 12L16 13L17 13L17 12L18 12L18 11ZM21 12L21 13L22 13L22 12ZM14 14L14 15L17 15L17 16L15 16L15 17L16 17L16 18L18 18L18 17L19 17L19 16L20 16L20 15L18 15L18 14ZM27 14L27 15L28 15L28 14ZM12 16L12 17L13 17L13 16ZM0 18L0 19L1 19L1 18ZM6 19L6 20L7 20L7 19ZM11 19L11 20L9 20L9 21L10 21L10 22L11 22L11 20L12 20L12 19ZM21 21L21 24L24 24L24 21ZM28 21L28 22L29 22L29 21ZM22 22L22 23L23 23L23 22ZM17 23L17 24L16 24L16 25L17 25L17 24L18 24L18 23ZM19 23L19 25L20 25L20 23ZM28 23L28 24L29 24L29 23ZM10 24L10 26L11 26L11 24ZM12 24L12 26L13 26L13 27L14 27L14 26L15 26L15 24ZM13 25L13 26L14 26L14 25ZM25 25L25 26L26 26L26 25ZM28 25L28 27L27 27L27 29L28 29L28 27L29 27L29 25ZM0 0L0 7L7 7L7 0ZM1 1L1 6L6 6L6 1ZM2 2L2 5L5 5L5 2ZM22 0L22 7L29 7L29 0ZM23 1L23 6L28 6L28 1ZM24 2L24 5L27 5L27 2ZM0 22L0 29L7 29L7 22ZM1 23L1 28L6 28L6 23ZM2 24L2 27L5 27L5 24Z" fill="#000000"/></g></g></svg>
