<?xml version="1.0" encoding="UTF-8"?>
<svg xmlns="http://www.w3.org/2000/svg" version="1.1" width="100" height="100" viewBox="0 0 100 100"><rect x="0" y="0" width="100" height="100" fill="#ffffff"/><g transform="scale(2.703)"><g transform="translate(0,0)"><path fill-rule="evenodd" d="M8 0L8 1L9 1L9 2L8 2L8 5L9 5L9 4L11 4L11 5L10 5L10 9L9 9L9 8L8 8L8 9L7 9L7 8L6 8L6 9L4 9L4 8L0 8L0 9L2 9L2 11L1 11L1 13L0 13L0 15L4 15L4 16L1 16L1 17L0 17L0 18L1 18L1 17L3 17L3 18L2 18L2 19L3 19L3 20L1 20L1 19L0 19L0 21L1 21L1 22L0 22L0 24L2 24L2 23L3 23L3 22L2 22L2 21L3 21L3 20L5 20L5 22L4 22L4 23L7 23L7 22L8 22L8 19L7 19L7 18L6 18L6 17L8 17L8 16L9 16L9 15L10 15L10 17L9 17L9 18L10 18L10 17L11 17L11 16L12 16L12 17L13 17L13 16L12 16L12 14L13 14L13 15L14 15L14 18L13 18L13 21L15 21L15 22L14 22L14 23L10 23L10 22L11 22L11 20L12 20L12 19L9 19L9 21L10 21L10 22L9 22L9 23L10 23L10 24L8 24L8 25L9 25L9 27L10 27L10 28L8 28L8 27L7 27L7 26L6 26L6 27L7 27L7 28L3 28L3 29L8 29L8 30L9 30L9 31L10 31L10 29L12 29L12 30L11 30L11 31L12 31L12 32L11 32L11 33L10 33L10 32L9 32L9 33L8 33L8 37L9 37L9 36L10 36L10 37L11 37L11 36L10 36L10 34L11 34L11 35L14 35L14 34L15 34L15 33L14 33L14 32L13 32L13 30L14 30L14 29L12 29L12 28L14 28L14 27L15 27L15 26L14 26L14 25L13 25L13 26L12 26L12 24L16 24L16 22L17 22L17 21L18 21L18 20L19 20L19 22L18 22L18 24L17 24L17 26L18 26L18 27L19 27L19 28L20 28L20 31L22 31L22 32L21 32L21 33L20 33L20 32L19 32L19 31L18 31L18 30L19 30L19 29L18 29L18 30L17 30L17 31L16 31L16 29L15 29L15 31L16 31L16 37L19 37L19 36L20 36L20 37L21 37L21 36L20 36L20 35L19 35L19 34L23 34L23 37L27 37L27 35L29 35L29 37L30 37L30 35L33 35L33 36L31 36L31 37L37 37L37 36L35 36L35 34L37 34L37 33L34 33L34 35L33 35L33 31L34 31L34 30L33 30L33 29L36 29L36 30L35 30L35 32L36 32L36 31L37 31L37 27L36 27L36 26L37 26L37 24L35 24L35 23L32 23L32 25L31 25L31 22L32 22L32 21L33 21L33 22L34 22L34 19L35 19L35 22L36 22L36 19L37 19L37 17L36 17L36 16L37 16L37 15L36 15L36 14L37 14L37 11L36 11L36 9L37 9L37 8L36 8L36 9L35 9L35 8L32 8L32 9L31 9L31 11L30 11L30 10L29 10L29 9L30 9L30 8L28 8L28 7L29 7L29 6L28 6L28 7L27 7L27 5L29 5L29 4L28 4L28 3L26 3L26 2L27 2L27 0L26 0L26 1L25 1L25 0L18 0L18 1L16 1L16 0L12 0L12 1L11 1L11 0L10 0L10 1L9 1L9 0ZM28 0L28 2L29 2L29 0ZM14 1L14 2L11 2L11 4L12 4L12 3L13 3L13 5L12 5L12 6L11 6L11 8L12 8L12 6L13 6L13 8L14 8L14 9L15 9L15 7L16 7L16 6L15 6L15 5L16 5L16 4L17 4L17 3L18 3L18 2L21 2L21 3L20 3L20 4L21 4L21 7L20 7L20 6L19 6L19 8L18 8L18 9L17 9L17 8L16 8L16 10L14 10L14 11L11 11L11 10L12 10L12 9L11 9L11 10L7 10L7 9L6 9L6 10L7 10L7 11L6 11L6 12L5 12L5 10L4 10L4 9L3 9L3 10L4 10L4 11L2 11L2 13L1 13L1 14L3 14L3 13L4 13L4 14L5 14L5 16L4 16L4 17L6 17L6 16L8 16L8 15L6 15L6 14L10 14L10 15L11 15L11 14L10 14L10 13L12 13L12 12L13 12L13 14L14 14L14 15L15 15L15 16L16 16L16 15L15 15L15 14L16 14L16 13L17 13L17 12L19 12L19 13L20 13L20 14L21 14L21 15L20 15L20 16L18 16L18 15L19 15L19 14L17 14L17 19L15 19L15 21L16 21L16 20L17 20L17 19L21 19L21 20L20 20L20 21L21 21L21 20L22 20L22 19L23 19L23 21L24 21L24 22L27 22L27 23L28 23L28 24L27 24L27 25L28 25L28 26L26 26L26 25L25 25L25 23L23 23L23 24L22 24L22 23L21 23L21 22L19 22L19 23L21 23L21 24L20 24L20 25L21 25L21 27L20 27L20 28L21 28L21 27L22 27L22 29L24 29L24 30L23 30L23 32L24 32L24 34L25 34L25 35L26 35L26 34L28 34L28 32L27 32L27 31L28 31L28 28L32 28L32 27L33 27L33 28L36 28L36 27L33 27L33 26L31 26L31 27L28 27L28 26L29 26L29 25L30 25L30 24L29 24L29 23L30 23L30 22L31 22L31 21L32 21L32 20L30 20L30 21L29 21L29 22L28 22L28 20L27 20L27 17L28 17L28 18L29 18L29 19L34 19L34 18L35 18L35 17L34 17L34 16L36 16L36 15L35 15L35 14L36 14L36 12L35 12L35 14L34 14L34 16L33 16L33 15L31 15L31 14L29 14L29 12L30 12L30 11L28 11L28 8L27 8L27 9L26 9L26 6L25 6L25 5L27 5L27 4L25 4L25 1L24 1L24 3L23 3L23 2L22 2L22 1L18 1L18 2L17 2L17 3L16 3L16 1ZM14 3L14 5L13 5L13 6L14 6L14 7L15 7L15 6L14 6L14 5L15 5L15 4L16 4L16 3ZM22 4L22 7L23 7L23 8L21 8L21 9L20 9L20 8L19 8L19 10L21 10L21 9L23 9L23 10L22 10L22 11L25 11L25 13L26 13L26 15L27 15L27 16L28 16L28 17L29 17L29 16L31 16L31 17L30 17L30 18L31 18L31 17L32 17L32 16L31 16L31 15L29 15L29 14L28 14L28 13L27 13L27 12L28 12L28 11L27 11L27 10L26 10L26 9L25 9L25 8L24 8L24 7L25 7L25 6L24 6L24 7L23 7L23 4ZM8 6L8 7L9 7L9 6ZM17 6L17 7L18 7L18 6ZM32 9L32 10L33 10L33 11L32 11L32 12L31 12L31 13L32 13L32 12L34 12L34 10L33 10L33 9ZM16 10L16 12L14 12L14 14L15 14L15 13L16 13L16 12L17 12L17 11L18 11L18 10ZM25 10L25 11L26 11L26 10ZM8 11L8 12L6 12L6 13L5 13L5 14L6 14L6 13L9 13L9 11ZM19 11L19 12L21 12L21 11ZM23 12L23 13L22 13L22 15L21 15L21 16L20 16L20 18L21 18L21 19L22 19L22 18L21 18L21 17L22 17L22 16L23 16L23 18L24 18L24 19L25 19L25 18L24 18L24 17L26 17L26 16L24 16L24 15L25 15L25 14L24 14L24 15L23 15L23 13L24 13L24 12ZM27 14L27 15L28 15L28 14ZM15 17L15 18L16 18L16 17ZM18 17L18 18L19 18L19 17ZM33 17L33 18L34 18L34 17ZM5 18L5 20L7 20L7 19L6 19L6 18ZM26 20L26 21L27 21L27 20ZM6 21L6 22L7 22L7 21ZM6 24L6 25L7 25L7 24ZM18 24L18 26L19 26L19 24ZM23 24L23 25L22 25L22 27L23 27L23 28L24 28L24 27L26 27L26 28L25 28L25 30L24 30L24 32L25 32L25 31L26 31L26 28L27 28L27 27L26 27L26 26L24 26L24 27L23 27L23 25L24 25L24 24ZM3 25L3 26L1 26L1 27L0 27L0 28L1 28L1 27L5 27L5 25ZM34 25L34 26L36 26L36 25ZM11 26L11 28L12 28L12 26ZM13 26L13 27L14 27L14 26ZM29 29L29 32L32 32L32 29ZM30 30L30 31L31 31L31 30ZM18 32L18 33L17 33L17 34L19 34L19 32ZM26 32L26 33L25 33L25 34L26 34L26 33L27 33L27 32ZM9 33L9 34L10 34L10 33ZM11 33L11 34L12 34L12 33ZM31 33L31 34L32 34L32 33ZM17 35L17 36L19 36L19 35ZM12 36L12 37L13 37L13 36ZM14 36L14 37L15 37L15 36ZM0 0L0 7L7 7L7 0ZM1 1L1 6L6 6L6 1ZM2 2L2 5L5 5L5 2ZM30 0L30 7L37 7L37 0ZM31 1L31 6L36 6L36 1ZM32 2L32 5L35 5L35 2ZM0 30L0 37L7 37L7 30ZM1 31L1 36L6 36L6 31ZM2 32L2 35L5 35L5 32Z" fill="#000000"/></g></g></svg>
