<?xml version="1.0" encoding="UTF-8"?>
<svg xmlns="http://www.w3.org/2000/svg" version="1.1" width="100" height="100" viewBox="0 0 100 100"><rect x="0" y="0" width="100" height="100" fill="#ffffff"/><g transform="scale(3.448)"><g transform="translate(0,0)"><path fill-rule="evenodd" d="M10 0L10 2L11 2L11 0ZM12 0L12 1L13 1L13 2L12 2L12 4L13 4L13 3L14 3L14 4L17 4L17 5L15 5L15 6L14 6L14 8L15 8L15 9L12 9L12 7L13 7L13 5L11 5L11 6L10 6L10 4L11 4L11 3L8 3L8 4L9 4L9 5L8 5L8 7L9 7L9 8L6 8L6 9L10 9L10 11L11 11L11 9L12 9L12 10L13 10L13 11L12 11L12 13L13 13L13 12L14 12L14 13L15 13L15 12L16 12L16 13L18 13L18 14L20 14L20 16L19 16L19 15L18 15L18 16L17 16L17 15L16 15L16 14L15 14L15 15L14 15L14 16L15 16L15 17L12 17L12 15L13 15L13 14L10 14L10 13L11 13L11 12L9 12L9 10L4 10L4 9L5 9L5 8L0 8L0 9L2 9L2 10L1 10L1 12L0 12L0 13L1 13L1 14L0 14L0 15L2 15L2 16L0 16L0 21L1 21L1 17L3 17L3 15L4 15L4 18L5 18L5 19L4 19L4 20L3 20L3 18L2 18L2 20L3 20L3 21L4 21L4 20L6 20L6 21L7 21L7 20L8 20L8 23L9 23L9 24L8 24L8 29L9 29L9 24L10 24L10 25L12 25L12 26L13 26L13 27L12 27L12 29L13 29L13 28L14 28L14 29L20 29L20 28L22 28L22 27L23 27L23 29L24 29L24 28L25 28L25 26L24 26L24 25L27 25L27 28L26 28L26 29L27 29L27 28L28 28L28 26L29 26L29 25L27 25L27 24L28 24L28 22L29 22L29 20L25 20L25 19L26 19L26 17L27 17L27 18L29 18L29 17L28 17L28 16L29 16L29 15L28 15L28 14L29 14L29 13L28 13L28 14L26 14L26 15L28 15L28 16L25 16L25 13L24 13L24 12L26 12L26 13L27 13L27 12L29 12L29 11L27 11L27 10L29 10L29 9L28 9L28 8L27 8L27 10L26 10L26 11L24 11L24 10L25 10L25 9L26 9L26 8L25 8L25 9L24 9L24 8L23 8L23 9L22 9L22 8L21 8L21 4L19 4L19 3L20 3L20 2L21 2L21 0L18 0L18 1L20 1L20 2L18 2L18 3L16 3L16 0L15 0L15 1L14 1L14 0ZM8 1L8 2L9 2L9 1ZM14 2L14 3L15 3L15 2ZM17 5L17 7L16 7L16 6L15 6L15 7L16 7L16 8L19 8L19 9L15 9L15 10L18 10L18 11L16 11L16 12L18 12L18 13L19 13L19 12L21 12L21 11L20 11L20 10L19 10L19 9L21 9L21 8L20 8L20 5ZM9 6L9 7L10 7L10 6ZM11 6L11 7L12 7L12 6ZM18 6L18 7L19 7L19 6ZM10 8L10 9L11 9L11 8ZM2 10L2 11L3 11L3 12L1 12L1 13L3 13L3 12L4 12L4 10ZM22 10L22 11L23 11L23 12L22 12L22 13L23 13L23 14L24 14L24 13L23 13L23 12L24 12L24 11L23 11L23 10ZM5 11L5 14L4 14L4 15L6 15L6 16L7 16L7 15L6 15L6 14L8 14L8 15L10 15L10 18L11 18L11 19L8 19L8 20L11 20L11 21L9 21L9 23L11 23L11 22L13 22L13 23L12 23L12 25L15 25L15 26L16 26L16 27L17 27L17 28L20 28L20 27L22 27L22 26L23 26L23 27L24 27L24 26L23 26L23 25L22 25L22 26L21 26L21 25L20 25L20 24L19 24L19 23L18 23L18 22L20 22L20 20L24 20L24 19L23 19L23 18L24 18L24 17L25 17L25 16L24 16L24 15L22 15L22 14L21 14L21 13L20 13L20 14L21 14L21 16L20 16L20 18L19 18L19 17L18 17L18 18L16 18L16 17L17 17L17 16L16 16L16 15L15 15L15 16L16 16L16 17L15 17L15 18L16 18L16 19L17 19L17 20L16 20L16 21L14 21L14 20L15 20L15 19L14 19L14 20L13 20L13 21L12 21L12 19L13 19L13 18L12 18L12 17L11 17L11 15L10 15L10 14L8 14L8 13L9 13L9 12L8 12L8 11ZM14 11L14 12L15 12L15 11ZM18 11L18 12L19 12L19 11ZM26 11L26 12L27 12L27 11ZM6 12L6 13L7 13L7 12ZM2 14L2 15L3 15L3 14ZM8 16L8 17L9 17L9 16ZM21 16L21 17L22 17L22 18L20 18L20 19L19 19L19 18L18 18L18 19L19 19L19 20L17 20L17 21L16 21L16 22L15 22L15 23L14 23L14 24L15 24L15 25L18 25L18 26L17 26L17 27L20 27L20 25L18 25L18 24L17 24L17 22L18 22L18 21L19 21L19 20L20 20L20 19L22 19L22 18L23 18L23 17L24 17L24 16L23 16L23 17L22 17L22 16ZM5 17L5 18L7 18L7 17ZM6 19L6 20L7 20L7 19ZM21 21L21 24L24 24L24 21ZM25 21L25 24L27 24L27 23L26 23L26 22L28 22L28 21ZM22 22L22 23L23 23L23 22ZM15 23L15 24L16 24L16 23ZM10 26L10 29L11 29L11 26ZM14 27L14 28L15 28L15 27ZM0 0L0 7L7 7L7 0ZM1 1L1 6L6 6L6 1ZM2 2L2 5L5 5L5 2ZM22 0L22 7L29 7L29 0ZM23 1L23 6L28 6L28 1ZM24 2L24 5L27 5L27 2ZM0 22L0 29L7 29L7 22ZM1 23L1 28L6 28L6 23ZM2 24L2 27L5 27L5 24Z" fill="#000000"/></g></g></svg>
