<?xml version="1.0" encoding="UTF-8"?>
<svg xmlns="http://www.w3.org/2000/svg" version="1.1" width="100" height="100" viewBox="0 0 100 100"><rect x="0" y="0" width="100" height="100" fill="#ffffff"/><g transform="scale(2.703)"><g transform="translate(0,0)"><path fill-rule="evenodd" d="M8 0L8 1L9 1L9 2L10 2L10 3L11 3L11 1L13 1L13 0L11 0L11 1L9 1L9 0ZM15 0L15 1L16 1L16 2L15 2L15 3L16 3L16 4L14 4L14 5L15 5L15 6L14 6L14 7L13 7L13 5L12 5L12 4L13 4L13 2L12 2L12 4L11 4L11 5L10 5L10 4L9 4L9 5L10 5L10 8L9 8L9 6L8 6L8 8L9 8L9 9L12 9L12 10L10 10L10 12L9 12L9 11L8 11L8 10L6 10L6 9L7 9L7 8L6 8L6 9L5 9L5 8L3 8L3 9L5 9L5 10L6 10L6 11L5 11L5 12L6 12L6 13L4 13L4 14L3 14L3 12L4 12L4 11L3 11L3 10L2 10L2 8L0 8L0 11L2 11L2 13L1 13L1 12L0 12L0 18L1 18L1 16L2 16L2 15L4 15L4 14L6 14L6 15L5 15L5 17L2 17L2 19L1 19L1 22L0 22L0 23L1 23L1 25L0 25L0 29L1 29L1 27L2 27L2 29L3 29L3 28L4 28L4 27L5 27L5 26L6 26L6 27L7 27L7 28L5 28L5 29L8 29L8 30L9 30L9 31L11 31L11 33L12 33L12 34L9 34L9 32L8 32L8 34L9 34L9 35L8 35L8 37L14 37L14 31L16 31L16 30L18 30L18 32L15 32L15 37L16 37L16 35L17 35L17 36L18 36L18 37L20 37L20 36L19 36L19 35L18 35L18 34L20 34L20 30L21 30L21 31L22 31L22 33L23 33L23 35L24 35L24 33L25 33L25 34L26 34L26 36L27 36L27 34L28 34L28 35L30 35L30 36L32 36L32 35L33 35L33 37L34 37L34 36L36 36L36 37L37 37L37 30L36 30L36 28L37 28L37 26L36 26L36 25L37 25L37 22L36 22L36 21L37 21L37 18L36 18L36 20L35 20L35 21L34 21L34 22L33 22L33 20L34 20L34 19L33 19L33 18L34 18L34 17L37 17L37 14L36 14L36 13L37 13L37 12L35 12L35 11L37 11L37 10L36 10L36 9L37 9L37 8L36 8L36 9L35 9L35 10L33 10L33 9L31 9L31 8L30 8L30 9L31 9L31 10L28 10L28 9L29 9L29 8L28 8L28 7L29 7L29 6L28 6L28 7L27 7L27 5L26 5L26 7L25 7L25 6L24 6L24 5L25 5L25 4L26 4L26 2L27 2L27 3L28 3L28 5L29 5L29 3L28 3L28 2L29 2L29 1L28 1L28 2L27 2L27 1L26 1L26 0L24 0L24 1L26 1L26 2L24 2L24 3L25 3L25 4L24 4L24 5L23 5L23 3L22 3L22 2L20 2L20 1L19 1L19 0ZM17 1L17 3L18 3L18 2L19 2L19 1ZM18 4L18 6L17 6L17 8L15 8L15 7L16 7L16 6L15 6L15 7L14 7L14 13L15 13L15 14L14 14L14 15L12 15L12 16L11 16L11 14L13 14L13 13L11 13L11 12L10 12L10 13L9 13L9 12L7 12L7 11L6 11L6 12L7 12L7 13L6 13L6 14L7 14L7 15L6 15L6 16L7 16L7 15L8 15L8 13L9 13L9 14L10 14L10 16L8 16L8 17L5 17L5 18L3 18L3 19L2 19L2 22L3 22L3 21L4 21L4 20L5 20L5 21L6 21L6 22L5 22L5 23L2 23L2 25L1 25L1 26L2 26L2 27L4 27L4 26L2 26L2 25L3 25L3 24L5 24L5 25L6 25L6 26L7 26L7 27L10 27L10 26L9 26L9 25L11 25L11 28L8 28L8 29L10 29L10 30L11 30L11 31L12 31L12 33L13 33L13 31L12 31L12 30L15 30L15 28L16 28L16 27L17 27L17 29L20 29L20 28L18 28L18 27L19 27L19 26L20 26L20 23L21 23L21 29L23 29L23 30L22 30L22 31L23 31L23 30L24 30L24 28L26 28L26 29L25 29L25 31L24 31L24 32L25 32L25 33L26 33L26 32L27 32L27 31L28 31L28 29L27 29L27 26L26 26L26 27L25 27L25 25L28 25L28 26L30 26L30 27L29 27L29 28L33 28L33 30L35 30L35 31L33 31L33 32L34 32L34 34L35 34L35 35L36 35L36 34L35 34L35 33L36 33L36 30L35 30L35 29L34 29L34 28L33 28L33 27L34 27L34 26L35 26L35 25L36 25L36 24L34 24L34 26L32 26L32 25L33 25L33 24L32 24L32 25L28 25L28 24L31 24L31 23L33 23L33 22L31 22L31 21L32 21L32 19L31 19L31 17L30 17L30 16L29 16L29 15L30 15L30 14L32 14L32 13L33 13L33 12L34 12L34 13L35 13L35 12L34 12L34 11L30 11L30 12L29 12L29 11L28 11L28 12L26 12L26 10L24 10L24 11L21 11L21 12L20 12L20 13L18 13L18 12L17 12L17 14L20 14L20 16L19 16L19 17L18 17L18 15L16 15L16 13L15 13L15 12L16 12L16 11L15 11L15 10L16 10L16 9L17 9L17 10L18 10L18 11L20 11L20 10L18 10L18 9L19 9L19 8L21 8L21 9L22 9L22 8L23 8L23 9L26 9L26 8L25 8L25 7L24 7L24 6L23 6L23 7L22 7L22 5L21 5L21 7L20 7L20 5L19 5L19 4ZM11 5L11 7L12 7L12 9L13 9L13 7L12 7L12 5ZM18 6L18 7L19 7L19 6ZM17 8L17 9L18 9L18 8ZM12 10L12 11L13 11L13 10ZM24 11L24 12L22 12L22 14L21 14L21 13L20 13L20 14L21 14L21 15L23 15L23 17L24 17L24 18L21 18L21 16L20 16L20 17L19 17L19 18L18 18L18 17L17 17L17 16L16 16L16 15L15 15L15 16L14 16L14 17L10 17L10 19L8 19L8 20L6 20L6 19L7 19L7 18L5 18L5 20L6 20L6 21L7 21L7 22L6 22L6 23L7 23L7 24L6 24L6 25L8 25L8 23L7 23L7 22L8 22L8 21L9 21L9 22L11 22L11 21L9 21L9 20L11 20L11 19L12 19L12 21L14 21L14 24L13 24L13 25L12 25L12 26L13 26L13 25L15 25L15 24L16 24L16 25L17 25L17 24L18 24L18 25L19 25L19 24L18 24L18 22L17 22L17 24L16 24L16 23L15 23L15 21L19 21L19 22L21 22L21 19L22 19L22 21L23 21L23 22L22 22L22 24L23 24L23 26L22 26L22 27L23 27L23 28L24 28L24 27L23 27L23 26L24 26L24 25L25 25L25 23L26 23L26 24L28 24L28 21L31 21L31 20L29 20L29 19L30 19L30 17L29 17L29 16L27 16L27 15L29 15L29 14L28 14L28 13L29 13L29 12L28 12L28 13L25 13L25 11ZM30 12L30 13L32 13L32 12ZM10 13L10 14L11 14L11 13ZM24 13L24 14L23 14L23 15L24 15L24 17L25 17L25 16L26 16L26 18L27 18L27 16L26 16L26 14L25 14L25 13ZM1 14L1 15L2 15L2 14ZM33 14L33 16L32 16L32 15L31 15L31 16L32 16L32 18L33 18L33 16L34 16L34 15L35 15L35 16L36 16L36 15L35 15L35 14ZM15 16L15 18L12 18L12 19L13 19L13 20L14 20L14 19L15 19L15 20L19 20L19 21L20 21L20 20L19 20L19 19L17 19L17 18L16 18L16 16ZM28 17L28 19L29 19L29 17ZM15 18L15 19L16 19L16 18ZM24 18L24 19L23 19L23 21L25 21L25 22L24 22L24 23L25 23L25 22L26 22L26 20L27 20L27 19L26 19L26 20L24 20L24 19L25 19L25 18ZM3 19L3 20L4 20L4 19ZM12 22L12 23L13 23L13 22ZM34 22L34 23L36 23L36 22ZM9 23L9 24L11 24L11 23ZM14 26L14 27L12 27L12 28L11 28L11 30L12 30L12 29L13 29L13 28L15 28L15 27L16 27L16 26ZM17 26L17 27L18 27L18 26ZM35 27L35 28L36 28L36 27ZM29 29L29 32L32 32L32 29ZM26 30L26 31L25 31L25 32L26 32L26 31L27 31L27 30ZM30 30L30 31L31 31L31 30ZM18 32L18 33L16 33L16 34L18 34L18 33L19 33L19 32ZM28 33L28 34L29 34L29 33ZM31 33L31 34L30 34L30 35L31 35L31 34L33 34L33 33ZM12 34L12 35L13 35L13 34ZM21 34L21 35L22 35L22 34ZM10 35L10 36L11 36L11 35ZM22 36L22 37L23 37L23 36ZM24 36L24 37L25 37L25 36ZM28 36L28 37L29 37L29 36ZM0 0L0 7L7 7L7 0ZM1 1L1 6L6 6L6 1ZM2 2L2 5L5 5L5 2ZM30 0L30 7L37 7L37 0ZM31 1L31 6L36 6L36 1ZM32 2L32 5L35 5L35 2ZM0 30L0 37L7 37L7 30ZM1 31L1 36L6 36L6 31ZM2 32L2 35L5 35L5 32Z" fill="#000000"/></g></g></svg>
