<?xml version="1.0" encoding="UTF-8"?>
<svg xmlns="http://www.w3.org/2000/svg" version="1.1" width="100" height="100" viewBox="0 0 100 100"><rect x="0" y="0" width="100" height="100" fill="#ffffff"/><g transform="scale(2.703)"><g transform="translate(0,0)"><path fill-rule="evenodd" d="M8 0L8 4L10 4L10 3L11 3L11 4L12 4L12 2L11 2L11 0ZM12 0L12 1L13 1L13 0ZM18 0L18 2L17 2L17 1L16 1L16 2L15 2L15 3L14 3L14 2L13 2L13 3L14 3L14 4L13 4L13 5L11 5L11 6L10 6L10 7L9 7L9 5L8 5L8 7L9 7L9 8L10 8L10 7L11 7L11 6L12 6L12 8L11 8L11 9L7 9L7 8L4 8L4 9L3 9L3 11L2 11L2 13L1 13L1 12L0 12L0 14L1 14L1 15L2 15L2 14L3 14L3 11L4 11L4 10L5 10L5 11L7 11L7 10L9 10L9 11L8 11L8 13L7 13L7 12L6 12L6 13L7 13L7 14L6 14L6 15L7 15L7 16L4 16L4 15L5 15L5 13L4 13L4 15L3 15L3 16L4 16L4 17L3 17L3 18L1 18L1 17L2 17L2 16L1 16L1 17L0 17L0 18L1 18L1 19L0 19L0 26L2 26L2 28L0 28L0 29L3 29L3 27L4 27L4 28L5 28L5 29L7 29L7 28L6 28L6 27L8 27L8 28L10 28L10 27L11 27L11 28L12 28L12 29L13 29L13 30L15 30L15 31L14 31L14 32L13 32L13 31L12 31L12 32L11 32L11 30L9 30L9 29L8 29L8 30L9 30L9 31L8 31L8 33L9 33L9 34L11 34L11 36L12 36L12 37L14 37L14 35L15 35L15 36L16 36L16 37L20 37L20 36L18 36L18 35L16 35L16 33L18 33L18 34L19 34L19 33L22 33L22 34L20 34L20 35L21 35L21 37L22 37L22 35L24 35L24 36L23 36L23 37L25 37L25 34L24 34L24 33L25 33L25 31L26 31L26 32L27 32L27 31L26 31L26 30L27 30L27 29L25 29L25 26L27 26L27 27L26 27L26 28L27 28L27 27L28 27L28 33L26 33L26 34L29 34L29 35L31 35L31 36L32 36L32 33L33 33L33 35L34 35L34 37L37 37L37 36L36 36L36 35L34 35L34 34L37 34L37 32L36 32L36 31L35 31L35 28L36 28L36 27L35 27L35 26L36 26L36 25L37 25L37 24L36 24L36 23L35 23L35 22L36 22L36 21L37 21L37 20L36 20L36 19L34 19L34 20L33 20L33 21L32 21L32 23L31 23L31 22L30 22L30 25L32 25L32 26L30 26L30 27L29 27L29 26L28 26L28 24L27 24L27 23L29 23L29 21L31 21L31 20L32 20L32 19L31 19L31 18L29 18L29 17L31 17L31 16L28 16L28 15L30 15L30 14L28 14L28 12L27 12L27 11L28 11L28 10L29 10L29 13L32 13L32 15L33 15L33 16L34 16L34 17L32 17L32 18L36 18L36 17L37 17L37 16L36 16L36 15L33 15L33 14L36 14L36 13L37 13L37 11L36 11L36 9L37 9L37 8L33 8L33 9L32 9L32 8L31 8L31 9L32 9L32 10L31 10L31 11L30 11L30 10L29 10L29 9L26 9L26 10L27 10L27 11L26 11L26 12L27 12L27 13L22 13L22 8L24 8L24 7L25 7L25 6L26 6L26 7L27 7L27 6L26 6L26 4L27 4L27 5L28 5L28 8L29 8L29 3L28 3L28 2L29 2L29 0L27 0L27 1L26 1L26 0L22 0L22 1L26 1L26 2L27 2L27 3L24 3L24 2L20 2L20 1L19 1L19 0ZM27 1L27 2L28 2L28 1ZM9 2L9 3L10 3L10 2ZM19 2L19 3L17 3L17 4L18 4L18 5L16 5L16 4L15 4L15 5L16 5L16 6L15 6L15 8L17 8L17 7L18 7L18 5L20 5L20 4L21 4L21 7L22 7L22 6L23 6L23 7L24 7L24 5L22 5L22 3L20 3L20 2ZM19 3L19 4L20 4L20 3ZM23 3L23 4L24 4L24 3ZM13 6L13 8L12 8L12 9L11 9L11 10L12 10L12 9L13 9L13 10L16 10L16 11L17 11L17 10L19 10L19 11L18 11L18 12L21 12L21 11L20 11L20 10L21 10L21 9L13 9L13 8L14 8L14 6ZM16 6L16 7L17 7L17 6ZM19 6L19 7L20 7L20 6ZM0 8L0 9L2 9L2 8ZM6 9L6 10L7 10L7 9ZM23 9L23 12L24 12L24 10L25 10L25 9ZM33 9L33 10L32 10L32 11L31 11L31 12L32 12L32 13L34 13L34 12L33 12L33 10L34 10L34 11L35 11L35 13L36 13L36 11L35 11L35 10L34 10L34 9ZM0 10L0 11L1 11L1 10ZM9 11L9 13L11 13L11 14L10 14L10 15L9 15L9 16L7 16L7 17L6 17L6 18L7 18L7 19L4 19L4 20L7 20L7 21L4 21L4 22L3 22L3 21L2 21L2 19L1 19L1 21L2 21L2 22L3 22L3 23L1 23L1 25L3 25L3 26L5 26L5 27L6 27L6 26L8 26L8 27L9 27L9 26L12 26L12 25L13 25L13 26L16 26L16 27L14 27L14 29L16 29L16 30L19 30L19 31L18 31L18 33L19 33L19 32L20 32L20 30L21 30L21 29L16 29L16 28L17 28L17 26L18 26L18 28L19 28L19 27L20 27L20 28L21 28L21 27L20 27L20 21L21 21L21 23L22 23L22 25L21 25L21 26L22 26L22 25L24 25L24 26L25 26L25 25L27 25L27 24L26 24L26 23L27 23L27 22L26 22L26 23L24 23L24 24L23 24L23 22L22 22L22 21L24 21L24 22L25 22L25 21L29 21L29 18L28 18L28 19L27 19L27 18L26 18L26 17L28 17L28 16L27 16L27 15L25 15L25 14L24 14L24 15L25 15L25 17L24 17L24 16L23 16L23 15L22 15L22 17L21 17L21 15L20 15L20 14L22 14L22 13L18 13L18 17L13 17L13 16L14 16L14 15L15 15L15 16L17 16L17 15L16 15L16 13L17 13L17 12L15 12L15 11L14 11L14 13L15 13L15 14L13 14L13 13L12 13L12 12L13 12L13 11L12 11L12 12L11 12L11 11ZM10 15L10 17L9 17L9 18L8 18L8 17L7 17L7 18L8 18L8 19L9 19L9 20L8 20L8 22L6 22L6 23L5 23L5 22L4 22L4 23L5 23L5 25L7 25L7 24L6 24L6 23L8 23L8 22L9 22L9 24L8 24L8 26L9 26L9 25L12 25L12 24L13 24L13 25L16 25L16 24L15 24L15 23L14 23L14 24L13 24L13 23L12 23L12 24L10 24L10 23L11 23L11 22L9 22L9 21L11 21L11 20L12 20L12 21L13 21L13 22L15 22L15 21L14 21L14 19L15 19L15 20L17 20L17 21L16 21L16 23L17 23L17 25L19 25L19 24L18 24L18 23L17 23L17 21L18 21L18 22L19 22L19 21L18 21L18 19L19 19L19 17L20 17L20 19L21 19L21 21L22 21L22 19L24 19L24 17L22 17L22 18L21 18L21 17L20 17L20 15L19 15L19 17L18 17L18 19L16 19L16 18L13 18L13 17L12 17L12 16L13 16L13 15L12 15L12 16L11 16L11 15ZM35 16L35 17L36 17L36 16ZM4 17L4 18L5 18L5 17ZM11 17L11 18L12 18L12 17ZM9 18L9 19L10 19L10 18ZM12 19L12 20L13 20L13 19ZM26 19L26 20L27 20L27 19ZM24 20L24 21L25 21L25 20ZM33 21L33 22L35 22L35 21ZM33 23L33 24L32 24L32 25L34 25L34 26L32 26L32 27L31 27L31 28L32 28L32 27L33 27L33 28L34 28L34 26L35 26L35 25L34 25L34 23ZM3 24L3 25L4 25L4 24ZM24 24L24 25L25 25L25 24ZM12 27L12 28L13 28L13 27ZM22 27L22 33L23 33L23 32L24 32L24 31L25 31L25 30L24 30L24 31L23 31L23 28L24 28L24 27ZM29 29L29 32L32 32L32 29ZM33 29L33 30L34 30L34 29ZM30 30L30 31L31 31L31 30ZM9 31L9 33L10 33L10 31ZM16 31L16 32L15 32L15 33L13 33L13 32L12 32L12 33L11 33L11 34L12 34L12 33L13 33L13 34L15 34L15 33L16 33L16 32L17 32L17 31ZM33 32L33 33L34 33L34 32ZM35 32L35 33L36 33L36 32ZM8 35L8 37L9 37L9 36L10 36L10 35ZM12 35L12 36L13 36L13 35ZM26 35L26 36L27 36L27 37L28 37L28 35ZM29 36L29 37L30 37L30 36ZM0 0L0 7L7 7L7 0ZM1 1L1 6L6 6L6 1ZM2 2L2 5L5 5L5 2ZM30 0L30 7L37 7L37 0ZM31 1L31 6L36 6L36 1ZM32 2L32 5L35 5L35 2ZM0 30L0 37L7 37L7 30ZM1 31L1 36L6 36L6 31ZM2 32L2 35L5 35L5 32Z" fill="#000000"/></g></g></svg>
