<?xml version="1.0" encoding="UTF-8"?>
<svg xmlns="http://www.w3.org/2000/svg" version="1.1" width="100" height="100" viewBox="0 0 100 100"><rect x="0" y="0" width="100" height="100" fill="#ffffff"/><g transform="scale(2.703)"><g transform="translate(0,0)"><path fill-rule="evenodd" d="M10 0L10 2L11 2L11 0ZM12 0L12 1L13 1L13 2L12 2L12 4L13 4L13 3L14 3L14 4L15 4L15 5L17 5L17 6L16 6L16 9L12 9L12 7L13 7L13 5L11 5L11 6L10 6L10 4L11 4L11 3L8 3L8 4L9 4L9 5L8 5L8 7L9 7L9 8L6 8L6 9L5 9L5 8L0 8L0 9L3 9L3 10L4 10L4 9L5 9L5 10L6 10L6 11L3 11L3 12L2 12L2 10L1 10L1 12L2 12L2 13L0 13L0 14L2 14L2 15L0 15L0 17L2 17L2 15L3 15L3 12L4 12L4 14L6 14L6 15L4 15L4 16L6 16L6 17L7 17L7 16L8 16L8 14L6 14L6 13L10 13L10 14L9 14L9 17L8 17L8 18L4 18L4 19L5 19L5 20L3 20L3 19L1 19L1 18L0 18L0 21L1 21L1 22L2 22L2 26L3 26L3 24L4 24L4 23L5 23L5 24L6 24L6 25L7 25L7 24L6 24L6 23L8 23L8 25L9 25L9 26L8 26L8 27L9 27L9 26L10 26L10 27L11 27L11 26L10 26L10 25L9 25L9 24L11 24L11 25L12 25L12 26L13 26L13 27L12 27L12 29L13 29L13 28L14 28L14 29L18 29L18 30L17 30L17 31L18 31L18 32L15 32L15 31L16 31L16 30L15 30L15 31L14 31L14 32L15 32L15 33L12 33L12 31L13 31L13 30L11 30L11 31L10 31L10 30L9 30L9 29L8 29L8 31L9 31L9 32L8 32L8 37L10 37L10 35L9 35L9 33L10 33L10 32L11 32L11 33L12 33L12 34L13 34L13 35L12 35L12 37L13 37L13 36L14 36L14 37L16 37L16 36L14 36L14 35L16 35L16 34L15 34L15 33L18 33L18 34L17 34L17 35L18 35L18 36L17 36L17 37L18 37L18 36L19 36L19 35L18 35L18 34L20 34L20 35L21 35L21 36L20 36L20 37L21 37L21 36L23 36L23 37L27 37L27 36L29 36L29 37L30 37L30 36L31 36L31 37L37 37L37 30L35 30L35 28L34 28L34 29L33 29L33 27L32 27L32 25L35 25L35 27L36 27L36 28L37 28L37 26L36 26L36 25L37 25L37 22L36 22L36 21L37 21L37 18L36 18L36 17L37 17L37 14L36 14L36 13L37 13L37 12L36 12L36 11L37 11L37 10L36 10L36 8L35 8L35 9L34 9L34 8L33 8L33 12L32 12L32 13L31 13L31 12L29 12L29 9L30 9L30 8L29 8L29 9L28 9L28 8L25 8L25 9L23 9L23 10L21 10L21 9L19 9L19 8L20 8L20 7L21 7L21 8L22 8L22 7L23 7L23 8L24 8L24 7L25 7L25 6L24 6L24 7L23 7L23 6L22 6L22 5L25 5L25 4L26 4L26 7L27 7L27 6L28 6L28 7L29 7L29 4L28 4L28 3L29 3L29 0L28 0L28 1L27 1L27 0L26 0L26 1L25 1L25 0L18 0L18 1L20 1L20 3L19 3L19 2L18 2L18 3L17 3L17 4L16 4L16 2L17 2L17 1L16 1L16 0ZM8 1L8 2L9 2L9 1ZM21 1L21 2L22 2L22 3L20 3L20 5L19 5L19 7L20 7L20 6L21 6L21 7L22 7L22 6L21 6L21 4L25 4L25 3L27 3L27 1L26 1L26 2L25 2L25 1L23 1L23 2L22 2L22 1ZM14 2L14 3L15 3L15 2ZM24 2L24 3L25 3L25 2ZM18 3L18 4L17 4L17 5L18 5L18 4L19 4L19 3ZM27 4L27 5L28 5L28 4ZM9 6L9 7L10 7L10 6ZM11 6L11 7L12 7L12 6ZM14 6L14 8L15 8L15 6ZM17 6L17 8L18 8L18 6ZM10 8L10 9L11 9L11 14L13 14L13 15L12 15L12 17L11 17L11 15L10 15L10 17L9 17L9 18L8 18L8 19L6 19L6 20L8 20L8 21L3 21L3 20L1 20L1 21L2 21L2 22L3 22L3 23L4 23L4 22L8 22L8 23L9 23L9 22L10 22L10 23L11 23L11 22L13 22L13 23L12 23L12 25L16 25L16 26L17 26L17 28L18 28L18 29L21 29L21 30L23 30L23 31L24 31L24 32L26 32L26 31L27 31L27 32L28 32L28 30L27 30L27 29L25 29L25 30L26 30L26 31L24 31L24 30L23 30L23 28L21 28L21 27L24 27L24 28L26 28L26 27L27 27L27 28L32 28L32 27L31 27L31 25L32 25L32 24L31 24L31 23L32 23L32 22L33 22L33 21L34 21L34 23L33 23L33 24L36 24L36 23L35 23L35 21L34 21L34 20L36 20L36 19L34 19L34 17L32 17L32 18L31 18L31 17L29 17L29 20L28 20L28 19L27 19L27 18L28 18L28 17L26 17L26 18L22 18L22 19L23 19L23 20L21 20L21 17L25 17L25 16L27 16L27 15L25 15L25 14L28 14L28 15L30 15L30 14L31 14L31 16L33 16L33 15L34 15L34 16L35 16L35 17L36 17L36 15L34 15L34 13L32 13L32 14L31 14L31 13L29 13L29 12L28 12L28 11L27 11L27 10L28 10L28 9L26 9L26 10L25 10L25 12L24 12L24 10L23 10L23 12L21 12L21 13L20 13L20 11L21 11L21 10L19 10L19 9L16 9L16 10L18 10L18 11L16 11L16 13L17 13L17 14L15 14L15 13L14 13L14 12L15 12L15 11L14 11L14 12L13 12L13 13L12 13L12 11L13 11L13 10L12 10L12 9L11 9L11 8ZM31 8L31 10L30 10L30 11L32 11L32 8ZM6 9L6 10L7 10L7 9ZM8 9L8 11L9 11L9 12L10 12L10 10L9 10L9 9ZM35 10L35 11L34 11L34 12L35 12L35 13L36 13L36 12L35 12L35 11L36 11L36 10ZM6 11L6 12L5 12L5 13L6 13L6 12L7 12L7 11ZM26 11L26 12L25 12L25 13L21 13L21 16L20 16L20 15L19 15L19 16L17 16L17 15L16 15L16 17L12 17L12 18L13 18L13 19L12 19L12 21L13 21L13 20L14 20L14 21L15 21L15 22L17 22L17 23L16 23L16 24L17 24L17 26L18 26L18 28L20 28L20 27L21 27L21 26L24 26L24 25L27 25L27 23L28 23L28 24L30 24L30 25L31 25L31 24L30 24L30 22L29 22L29 21L31 21L31 22L32 22L32 21L33 21L33 20L32 20L32 19L31 19L31 20L29 20L29 21L28 21L28 20L27 20L27 19L26 19L26 20L24 20L24 21L21 21L21 20L19 20L19 19L18 19L18 20L17 20L17 21L16 21L16 19L17 19L17 18L16 18L16 17L19 17L19 18L20 18L20 17L21 17L21 16L23 16L23 15L22 15L22 14L25 14L25 13L27 13L27 11ZM17 12L17 13L19 13L19 14L20 14L20 13L19 13L19 12ZM32 14L32 15L33 15L33 14ZM6 15L6 16L7 16L7 15ZM14 15L14 16L15 16L15 15ZM24 15L24 16L25 16L25 15ZM19 16L19 17L20 17L20 16ZM10 17L10 18L9 18L9 19L8 19L8 20L9 20L9 21L8 21L8 22L9 22L9 21L10 21L10 22L11 22L11 21L10 21L10 20L9 20L9 19L10 19L10 18L11 18L11 17ZM14 19L14 20L15 20L15 19ZM17 21L17 22L18 22L18 23L17 23L17 24L18 24L18 23L19 23L19 24L20 24L20 26L19 26L19 25L18 25L18 26L19 26L19 27L20 27L20 26L21 26L21 25L24 25L24 23L25 23L25 24L26 24L26 23L27 23L27 22L28 22L28 23L29 23L29 22L28 22L28 21L24 21L24 22L23 22L23 23L22 23L22 22L21 22L21 21L20 21L20 22L19 22L19 21ZM20 22L20 24L22 24L22 23L21 23L21 22ZM25 22L25 23L26 23L26 22ZM14 23L14 24L15 24L15 23ZM0 24L0 29L1 29L1 24ZM4 26L4 27L2 27L2 29L4 29L4 27L5 27L5 28L6 28L6 29L7 29L7 28L6 28L6 27L7 27L7 26L6 26L6 27L5 27L5 26ZM27 26L27 27L28 27L28 26ZM29 26L29 27L30 27L30 26ZM14 27L14 28L15 28L15 27ZM10 28L10 29L11 29L11 28ZM29 29L29 32L32 32L32 29ZM18 30L18 31L19 31L19 32L18 32L18 33L23 33L23 32L20 32L20 30ZM30 30L30 31L31 31L31 30ZM34 30L34 32L35 32L35 33L36 33L36 31L35 31L35 30ZM24 33L24 34L22 34L22 35L24 35L24 36L26 36L26 35L28 35L28 33L26 33L26 34L25 34L25 33ZM31 33L31 34L29 34L29 35L31 35L31 34L32 34L32 36L36 36L36 35L33 35L33 34L34 34L34 33L33 33L33 34L32 34L32 33ZM0 0L0 7L7 7L7 0ZM1 1L1 6L6 6L6 1ZM2 2L2 5L5 5L5 2ZM30 0L30 7L37 7L37 0ZM31 1L31 6L36 6L36 1ZM32 2L32 5L35 5L35 2ZM0 30L0 37L7 37L7 30ZM1 31L1 36L6 36L6 31ZM2 32L2 35L5 35L5 32Z" fill="#000000"/></g></g></svg>
