<?xml version="1.0" encoding="UTF-8"?>
<svg xmlns="http://www.w3.org/2000/svg" version="1.1" width="100" height="100" viewBox="0 0 100 100"><rect x="0" y="0" width="100" height="100" fill="#ffffff"/><g transform="scale(3.448)"><g transform="translate(0,0)"><path fill-rule="evenodd" d="M8 0L8 1L9 1L9 2L8 2L8 5L9 5L9 4L11 4L11 5L10 5L10 10L8 10L8 9L9 9L9 8L8 8L8 9L7 9L7 8L6 8L6 9L7 9L7 10L6 10L6 11L8 11L8 14L9 14L9 15L8 15L8 17L7 17L7 16L6 16L6 15L7 15L7 14L6 14L6 13L7 13L7 12L6 12L6 13L5 13L5 12L4 12L4 11L2 11L2 9L4 9L4 8L0 8L0 9L1 9L1 10L0 10L0 11L1 11L1 12L2 12L2 13L0 13L0 14L1 14L1 15L0 15L0 17L1 17L1 18L0 18L0 19L1 19L1 18L4 18L4 19L5 19L5 20L1 20L1 21L5 21L5 20L6 20L6 21L7 21L7 20L6 20L6 19L7 19L7 18L8 18L8 20L9 20L9 21L8 21L8 22L9 22L9 24L10 24L10 25L8 25L8 29L12 29L12 28L14 28L14 27L15 27L15 29L17 29L17 28L16 28L16 27L17 27L17 26L21 26L21 27L20 27L20 28L19 28L19 27L18 27L18 28L19 28L19 29L22 29L22 26L21 26L21 25L24 25L24 26L25 26L25 27L23 27L23 28L24 28L24 29L25 29L25 27L26 27L26 26L27 26L27 24L26 24L26 23L28 23L28 24L29 24L29 23L28 23L28 22L29 22L29 19L28 19L28 16L29 16L29 13L28 13L28 14L27 14L27 12L26 12L26 15L24 15L24 17L25 17L25 18L23 18L23 20L22 20L22 17L21 17L21 15L22 15L22 14L24 14L24 11L22 11L22 12L21 12L21 13L22 13L22 14L20 14L20 13L19 13L19 15L18 15L18 12L17 12L17 11L19 11L19 10L20 10L20 11L21 11L21 10L20 10L20 9L22 9L22 10L23 10L23 9L22 9L22 8L21 8L21 6L20 6L20 5L21 5L21 3L20 3L20 2L21 2L21 1L20 1L20 0L19 0L19 1L20 1L20 2L18 2L18 1L17 1L17 2L18 2L18 3L14 3L14 5L13 5L13 3L12 3L12 4L11 4L11 2L14 2L14 0L12 0L12 1L11 1L11 0L10 0L10 1L9 1L9 0ZM15 0L15 1L16 1L16 0ZM16 4L16 5L14 5L14 6L13 6L13 5L12 5L12 6L11 6L11 8L12 8L12 6L13 6L13 8L14 8L14 9L15 9L15 10L14 10L14 11L11 11L11 13L9 13L9 14L11 14L11 13L12 13L12 12L13 12L13 14L12 14L12 16L11 16L11 15L9 15L9 16L10 16L10 17L9 17L9 19L10 19L10 21L9 21L9 22L11 22L11 23L10 23L10 24L11 24L11 23L14 23L14 22L15 22L15 23L17 23L17 24L18 24L18 23L19 23L19 25L20 25L20 23L19 23L19 22L20 22L20 21L19 21L19 20L18 20L18 21L17 21L17 19L15 19L15 20L16 20L16 21L13 21L13 18L14 18L14 15L16 15L16 14L17 14L17 13L16 13L16 11L17 11L17 10L19 10L19 9L20 9L20 6L19 6L19 8L18 8L18 9L17 9L17 10L16 10L16 8L17 8L17 7L18 7L18 5L19 5L19 4ZM8 6L8 7L9 7L9 6ZM14 6L14 7L15 7L15 8L16 8L16 7L17 7L17 6L16 6L16 7L15 7L15 6ZM24 8L24 10L26 10L26 11L28 11L28 10L29 10L29 8L28 8L28 9L27 9L27 8ZM11 9L11 10L12 10L12 9ZM26 9L26 10L27 10L27 9ZM14 12L14 14L13 14L13 15L14 15L14 14L16 14L16 13L15 13L15 12ZM22 12L22 13L23 13L23 12ZM2 13L2 14L3 14L3 15L5 15L5 13ZM1 15L1 16L2 16L2 15ZM17 15L17 18L18 18L18 17L19 17L19 19L20 19L20 18L21 18L21 17L19 17L19 16L20 16L20 15L19 15L19 16L18 16L18 15ZM26 15L26 16L25 16L25 17L26 17L26 18L25 18L25 19L24 19L24 20L25 20L25 23L26 23L26 22L27 22L27 21L28 21L28 19L27 19L27 21L26 21L26 18L27 18L27 15ZM3 16L3 17L4 17L4 18L5 18L5 17L4 17L4 16ZM12 16L12 17L13 17L13 16ZM15 16L15 17L16 17L16 16ZM6 17L6 18L7 18L7 17ZM10 17L10 19L11 19L11 20L12 20L12 19L11 19L11 17ZM21 21L21 24L24 24L24 21ZM22 22L22 23L23 23L23 22ZM12 24L12 26L11 26L11 27L10 27L10 28L12 28L12 26L13 26L13 27L14 27L14 26L15 26L15 27L16 27L16 26L17 26L17 25L16 25L16 26L15 26L15 24ZM13 25L13 26L14 26L14 25ZM25 25L25 26L26 26L26 25ZM28 25L28 27L27 27L27 29L28 29L28 27L29 27L29 25ZM0 0L0 7L7 7L7 0ZM1 1L1 6L6 6L6 1ZM2 2L2 5L5 5L5 2ZM22 0L22 7L29 7L29 0ZM23 1L23 6L28 6L28 1ZM24 2L24 5L27 5L27 2ZM0 22L0 29L7 29L7 22ZM1 23L1 28L6 28L6 23ZM2 24L2 27L5 27L5 24Z" fill="#000000"/></g></g></svg>
