<?xml version="1.0" encoding="UTF-8"?>
<svg xmlns="http://www.w3.org/2000/svg" version="1.1" width="100" height="100" viewBox="0 0 100 100"><rect x="0" y="0" width="100" height="100" fill="#ffffff"/><g transform="scale(2.703)"><g transform="translate(0,0)"><path fill-rule="evenodd" d="M10 0L10 2L11 2L11 0ZM12 0L12 1L13 1L13 2L12 2L12 4L13 4L13 3L14 3L14 4L15 4L15 5L17 5L17 6L16 6L16 9L12 9L12 7L13 7L13 5L11 5L11 6L10 6L10 4L11 4L11 3L8 3L8 4L9 4L9 5L8 5L8 7L9 7L9 8L6 8L6 9L10 9L10 10L11 10L11 9L12 9L12 10L13 10L13 11L12 11L12 13L13 13L13 12L14 12L14 13L15 13L15 14L17 14L17 15L16 15L16 17L12 17L12 15L13 15L13 14L11 14L11 16L10 16L10 15L9 15L9 14L10 14L10 13L9 13L9 14L8 14L8 12L6 12L6 13L7 13L7 14L4 14L4 13L3 13L3 10L5 10L5 11L8 11L8 10L5 10L5 8L0 8L0 9L1 9L1 12L0 12L0 15L1 15L1 16L2 16L2 19L1 19L1 18L0 18L0 21L1 21L1 24L0 24L0 29L1 29L1 24L2 24L2 25L3 25L3 26L2 26L2 29L3 29L3 28L4 28L4 27L3 27L3 26L5 26L5 24L3 24L3 23L4 23L4 22L5 22L5 21L8 21L8 18L10 18L10 19L11 19L11 18L10 18L10 17L12 17L12 18L13 18L13 19L12 19L12 21L13 21L13 20L14 20L14 21L15 21L15 22L17 22L17 23L16 23L16 24L17 24L17 26L18 26L18 28L14 28L14 27L16 27L16 25L12 25L12 23L13 23L13 22L11 22L11 24L9 24L9 22L8 22L8 23L7 23L7 22L6 22L6 23L7 23L7 24L6 24L6 25L7 25L7 24L8 24L8 27L7 27L7 26L6 26L6 27L7 27L7 28L6 28L6 29L7 29L7 28L8 28L8 31L9 31L9 32L8 32L8 37L11 37L11 36L9 36L9 35L10 35L10 34L11 34L11 33L12 33L12 34L13 34L13 35L12 35L12 37L13 37L13 36L14 36L14 37L19 37L19 36L14 36L14 35L16 35L16 34L15 34L15 33L19 33L19 34L18 34L18 35L19 35L19 34L20 34L20 35L21 35L21 36L20 36L20 37L21 37L21 36L23 36L23 37L27 37L27 36L29 36L29 37L30 37L30 36L31 36L31 37L37 37L37 30L35 30L35 28L34 28L34 29L33 29L33 27L32 27L32 25L35 25L35 27L36 27L36 28L37 28L37 26L36 26L36 25L37 25L37 22L36 22L36 21L37 21L37 18L36 18L36 17L37 17L37 14L36 14L36 13L37 13L37 12L36 12L36 11L37 11L37 10L36 10L36 8L35 8L35 9L34 9L34 8L33 8L33 12L32 12L32 13L31 13L31 12L29 12L29 9L30 9L30 8L29 8L29 9L28 9L28 8L25 8L25 6L24 6L24 7L23 7L23 6L22 6L22 5L25 5L25 4L26 4L26 7L27 7L27 6L28 6L28 7L29 7L29 4L28 4L28 3L29 3L29 0L28 0L28 1L27 1L27 0L26 0L26 1L25 1L25 0L21 0L21 1L20 1L20 0L19 0L19 1L18 1L18 0L17 0L17 1L16 1L16 0ZM8 1L8 2L9 2L9 1ZM17 1L17 2L16 2L16 4L17 4L17 5L18 5L18 6L17 6L17 8L18 8L18 9L16 9L16 10L17 10L17 11L16 11L16 13L17 13L17 14L18 14L18 15L17 15L17 16L18 16L18 15L19 15L19 17L16 17L16 18L19 18L19 20L18 20L18 19L16 19L16 21L17 21L17 22L18 22L18 21L25 21L25 22L23 22L23 23L22 23L22 22L21 22L21 23L22 23L22 24L20 24L20 22L19 22L19 24L20 24L20 26L19 26L19 25L18 25L18 26L19 26L19 27L20 27L20 28L18 28L18 29L14 29L14 28L13 28L13 29L12 29L12 27L13 27L13 26L12 26L12 25L9 25L9 27L8 27L8 28L9 28L9 29L10 29L10 32L9 32L9 33L11 33L11 30L13 30L13 31L12 31L12 33L15 33L15 32L19 32L19 33L23 33L23 32L20 32L20 30L18 30L18 29L21 29L21 30L23 30L23 31L24 31L24 32L26 32L26 31L27 31L27 32L28 32L28 30L27 30L27 29L25 29L25 30L26 30L26 31L24 31L24 30L23 30L23 28L21 28L21 27L20 27L20 26L21 26L21 25L24 25L24 26L23 26L23 27L24 27L24 28L26 28L26 27L27 27L27 28L32 28L32 27L31 27L31 25L32 25L32 24L31 24L31 23L32 23L32 22L33 22L33 21L34 21L34 23L33 23L33 24L36 24L36 23L35 23L35 21L34 21L34 20L36 20L36 19L34 19L34 17L32 17L32 18L31 18L31 17L29 17L29 20L28 20L28 19L27 19L27 18L28 18L28 17L26 17L26 18L25 18L25 17L24 17L24 16L21 16L21 17L20 17L20 15L21 15L21 14L18 14L18 13L23 13L23 12L24 12L24 13L25 13L25 14L22 14L22 15L25 15L25 16L27 16L27 15L25 15L25 14L28 14L28 15L30 15L30 14L31 14L31 16L33 16L33 15L34 15L34 16L35 16L35 17L36 17L36 15L34 15L34 13L32 13L32 14L31 14L31 13L29 13L29 12L28 12L28 11L27 11L27 10L28 10L28 9L26 9L26 10L23 10L23 9L25 9L25 8L23 8L23 7L22 7L22 6L21 6L21 4L23 4L23 3L24 3L24 4L25 4L25 3L27 3L27 1L26 1L26 2L25 2L25 3L24 3L24 1L23 1L23 2L22 2L22 1L21 1L21 2L22 2L22 3L20 3L20 1L19 1L19 2L18 2L18 1ZM14 2L14 3L15 3L15 2ZM17 3L17 4L18 4L18 5L20 5L20 3L19 3L19 4L18 4L18 3ZM27 4L27 5L28 5L28 4ZM9 6L9 7L10 7L10 6ZM11 6L11 7L12 7L12 6ZM14 6L14 8L15 8L15 6ZM18 6L18 8L19 8L19 6ZM20 6L20 7L21 7L21 8L20 8L20 9L18 9L18 10L20 10L20 11L19 11L19 12L20 12L20 11L21 11L21 12L23 12L23 10L20 10L20 9L21 9L21 8L22 8L22 7L21 7L21 6ZM10 8L10 9L11 9L11 8ZM31 8L31 10L30 10L30 11L32 11L32 8ZM2 9L2 10L3 10L3 9ZM35 10L35 11L34 11L34 12L35 12L35 13L36 13L36 12L35 12L35 11L36 11L36 10ZM9 11L9 12L11 12L11 11ZM14 11L14 12L15 12L15 11ZM24 11L24 12L25 12L25 13L27 13L27 11L26 11L26 12L25 12L25 11ZM1 12L1 14L3 14L3 19L2 19L2 20L1 20L1 21L2 21L2 20L3 20L3 21L4 21L4 20L5 20L5 16L7 16L7 17L6 17L6 18L8 18L8 16L9 16L9 17L10 17L10 16L9 16L9 15L4 15L4 14L3 14L3 13L2 13L2 12ZM17 12L17 13L18 13L18 12ZM32 14L32 15L33 15L33 14ZM14 15L14 16L15 16L15 15ZM19 17L19 18L20 18L20 19L21 19L21 20L24 20L24 19L22 19L22 18L24 18L24 17L21 17L21 18L20 18L20 17ZM3 19L3 20L4 20L4 19ZM6 19L6 20L7 20L7 19ZM14 19L14 20L15 20L15 19ZM26 19L26 20L25 20L25 21L28 21L28 22L27 22L27 23L26 23L26 22L25 22L25 23L23 23L23 24L24 24L24 25L27 25L27 23L28 23L28 24L30 24L30 25L31 25L31 24L30 24L30 22L29 22L29 21L31 21L31 22L32 22L32 21L33 21L33 20L32 20L32 19L31 19L31 20L29 20L29 21L28 21L28 20L27 20L27 19ZM9 20L9 21L10 21L10 20ZM17 20L17 21L18 21L18 20ZM2 22L2 23L3 23L3 22ZM28 22L28 23L29 23L29 22ZM14 23L14 24L15 24L15 23ZM17 23L17 24L18 24L18 23ZM25 23L25 24L26 24L26 23ZM27 26L27 27L28 27L28 26ZM29 26L29 27L30 27L30 26ZM9 27L9 28L10 28L10 29L11 29L11 28L10 28L10 27ZM29 29L29 32L32 32L32 29ZM15 30L15 31L14 31L14 32L15 32L15 31L17 31L17 30ZM30 30L30 31L31 31L31 30ZM34 30L34 32L35 32L35 33L36 33L36 31L35 31L35 30ZM24 33L24 34L22 34L22 35L24 35L24 36L26 36L26 35L28 35L28 33L26 33L26 34L25 34L25 33ZM31 33L31 34L29 34L29 35L31 35L31 34L32 34L32 36L36 36L36 35L33 35L33 34L34 34L34 33L33 33L33 34L32 34L32 33ZM0 0L0 7L7 7L7 0ZM1 1L1 6L6 6L6 1ZM2 2L2 5L5 5L5 2ZM30 0L30 7L37 7L37 0ZM31 1L31 6L36 6L36 1ZM32 2L32 5L35 5L35 2ZM0 30L0 37L7 37L7 30ZM1 31L1 36L6 36L6 31ZM2 32L2 35L5 35L5 32Z" fill="#000000"/></g></g></svg>
