<?xml version="1.0" encoding="UTF-8"?>
<svg xmlns="http://www.w3.org/2000/svg" version="1.1" width="100" height="100" viewBox="0 0 100 100"><rect x="0" y="0" width="100" height="100" fill="#ffffff"/><g transform="scale(2.703)"><g transform="translate(0,0)"><path fill-rule="evenodd" d="M10 0L10 2L11 2L11 0ZM12 0L12 1L13 1L13 2L12 2L12 4L13 4L13 3L14 3L14 4L15 4L15 5L17 5L17 4L19 4L19 5L18 5L18 7L19 7L19 8L17 8L17 6L16 6L16 9L12 9L12 7L13 7L13 5L11 5L11 6L10 6L10 4L11 4L11 3L8 3L8 4L9 4L9 5L8 5L8 7L9 7L9 8L6 8L6 9L5 9L5 8L0 8L0 9L1 9L1 12L0 12L0 15L1 15L1 16L2 16L2 17L1 17L1 19L0 19L0 21L1 21L1 22L0 22L0 29L1 29L1 26L2 26L2 27L3 27L3 26L4 26L4 27L5 27L5 29L8 29L8 31L9 31L9 29L10 29L10 30L11 30L11 32L10 32L10 33L12 33L12 34L13 34L13 35L12 35L12 37L13 37L13 36L14 36L14 37L19 37L19 36L17 36L17 34L15 34L15 33L19 33L19 34L18 34L18 35L19 35L19 34L20 34L20 35L21 35L21 36L20 36L20 37L21 37L21 36L23 36L23 37L27 37L27 36L29 36L29 37L30 37L30 36L31 36L31 37L37 37L37 30L35 30L35 28L34 28L34 29L33 29L33 27L32 27L32 25L35 25L35 27L36 27L36 28L37 28L37 26L36 26L36 25L37 25L37 22L36 22L36 21L37 21L37 18L36 18L36 17L37 17L37 14L36 14L36 13L37 13L37 12L36 12L36 11L37 11L37 10L36 10L36 8L35 8L35 9L34 9L34 8L33 8L33 12L32 12L32 13L31 13L31 12L29 12L29 9L30 9L30 8L29 8L29 9L28 9L28 8L25 8L25 9L23 9L23 10L21 10L21 9L19 9L19 8L22 8L22 7L23 7L23 8L24 8L24 7L25 7L25 5L24 5L24 4L26 4L26 7L27 7L27 6L28 6L28 7L29 7L29 4L28 4L28 3L29 3L29 0L28 0L28 1L27 1L27 0L26 0L26 1L25 1L25 0L21 0L21 1L20 1L20 0L19 0L19 1L20 1L20 3L19 3L19 2L18 2L18 1L16 1L16 0ZM8 1L8 2L9 2L9 1ZM21 1L21 2L22 2L22 3L20 3L20 5L19 5L19 7L20 7L20 6L21 6L21 7L22 7L22 6L23 6L23 7L24 7L24 5L22 5L22 6L21 6L21 4L24 4L24 3L23 3L23 2L25 2L25 3L27 3L27 1L26 1L26 2L25 2L25 1L23 1L23 2L22 2L22 1ZM14 2L14 3L15 3L15 2ZM16 2L16 4L17 4L17 3L18 3L18 2ZM27 4L27 5L28 5L28 4ZM9 6L9 7L10 7L10 6ZM11 6L11 7L12 7L12 6ZM14 6L14 8L15 8L15 6ZM10 8L10 9L11 9L11 10L9 10L9 9L8 9L8 11L6 11L6 10L7 10L7 9L6 9L6 10L5 10L5 11L4 11L4 12L3 12L3 10L4 10L4 9L2 9L2 13L1 13L1 14L2 14L2 15L4 15L4 16L5 16L5 17L4 17L4 18L3 18L3 17L2 17L2 18L3 18L3 20L2 20L2 19L1 19L1 20L2 20L2 21L3 21L3 23L2 23L2 22L1 22L1 23L2 23L2 24L1 24L1 25L6 25L6 26L7 26L7 27L6 27L6 28L7 28L7 27L8 27L8 28L10 28L10 29L11 29L11 30L13 30L13 31L12 31L12 33L15 33L15 32L14 32L14 31L15 31L15 30L16 30L16 32L19 32L19 33L23 33L23 32L20 32L20 30L19 30L19 29L21 29L21 30L23 30L23 31L24 31L24 32L26 32L26 31L27 31L27 32L28 32L28 30L27 30L27 29L25 29L25 30L26 30L26 31L24 31L24 30L23 30L23 27L24 27L24 28L26 28L26 27L27 27L27 28L32 28L32 27L31 27L31 25L32 25L32 24L31 24L31 23L32 23L32 22L33 22L33 21L34 21L34 23L33 23L33 24L36 24L36 23L35 23L35 21L34 21L34 20L36 20L36 19L34 19L34 17L32 17L32 18L31 18L31 17L29 17L29 20L28 20L28 19L27 19L27 18L28 18L28 17L26 17L26 18L22 18L22 19L23 19L23 20L21 20L21 19L20 19L20 18L21 18L21 17L25 17L25 16L27 16L27 15L25 15L25 16L21 16L21 14L19 14L19 13L24 13L24 14L22 14L22 15L24 15L24 14L28 14L28 15L30 15L30 14L31 14L31 16L33 16L33 15L34 15L34 16L35 16L35 17L36 17L36 15L34 15L34 13L32 13L32 14L31 14L31 13L29 13L29 12L28 12L28 11L27 11L27 10L28 10L28 9L26 9L26 10L25 10L25 11L24 11L24 10L23 10L23 11L24 11L24 12L21 12L21 10L19 10L19 9L16 9L16 10L17 10L17 11L16 11L16 13L17 13L17 14L15 14L15 13L14 13L14 12L15 12L15 11L14 11L14 12L13 12L13 13L12 13L12 11L13 11L13 10L12 10L12 9L11 9L11 8ZM31 8L31 10L30 10L30 11L32 11L32 8ZM18 10L18 11L19 11L19 12L17 12L17 13L19 13L19 12L20 12L20 11L19 11L19 10ZM35 10L35 11L34 11L34 12L35 12L35 13L36 13L36 12L35 12L35 11L36 11L36 10ZM5 11L5 12L6 12L6 13L3 13L3 14L4 14L4 15L5 15L5 16L6 16L6 17L5 17L5 18L4 18L4 20L5 20L5 22L4 22L4 23L3 23L3 24L6 24L6 25L8 25L8 24L10 24L10 25L9 25L9 26L8 26L8 27L9 27L9 26L10 26L10 28L11 28L11 25L12 25L12 26L13 26L13 27L12 27L12 29L13 29L13 28L14 28L14 29L16 29L16 30L17 30L17 31L18 31L18 30L17 30L17 29L19 29L19 28L20 28L20 27L21 27L21 28L22 28L22 27L23 27L23 26L24 26L24 25L27 25L27 23L28 23L28 24L30 24L30 25L31 25L31 24L30 24L30 22L29 22L29 21L31 21L31 22L32 22L32 21L33 21L33 20L32 20L32 19L31 19L31 20L29 20L29 21L28 21L28 20L27 20L27 19L26 19L26 20L25 20L25 19L24 19L24 20L23 20L23 21L19 21L19 20L17 20L17 21L16 21L16 19L19 19L19 18L20 18L20 17L21 17L21 16L17 16L17 15L16 15L16 17L12 17L12 15L13 15L13 14L11 14L11 13L10 13L10 12L8 12L8 14L9 14L9 13L10 13L10 15L11 15L11 17L12 17L12 18L13 18L13 19L12 19L12 21L13 21L13 20L14 20L14 21L15 21L15 22L17 22L17 21L19 21L19 22L20 22L20 24L19 24L19 25L18 25L18 24L17 24L17 23L16 23L16 24L17 24L17 25L18 25L18 27L19 27L19 28L17 28L17 27L16 27L16 25L12 25L12 23L13 23L13 22L11 22L11 21L10 21L10 23L8 23L8 22L9 22L9 20L10 20L10 19L11 19L11 18L10 18L10 17L7 17L7 16L6 16L6 15L7 15L7 14L6 14L6 13L7 13L7 12L6 12L6 11ZM26 11L26 12L24 12L24 13L27 13L27 11ZM18 14L18 15L19 15L19 14ZM32 14L32 15L33 15L33 14ZM8 15L8 16L9 16L9 15ZM14 15L14 16L15 16L15 15ZM6 17L6 18L5 18L5 19L6 19L6 20L8 20L8 19L6 19L6 18L7 18L7 17ZM16 17L16 18L19 18L19 17ZM14 19L14 20L15 20L15 19ZM24 20L24 21L25 21L25 22L23 22L23 23L22 23L22 22L21 22L21 23L22 23L22 24L20 24L20 26L19 26L19 27L20 27L20 26L21 26L21 25L24 25L24 24L23 24L23 23L25 23L25 24L26 24L26 23L27 23L27 22L28 22L28 23L29 23L29 22L28 22L28 21L25 21L25 20ZM6 21L6 22L8 22L8 21ZM25 22L25 23L26 23L26 22ZM6 23L6 24L8 24L8 23ZM10 23L10 24L11 24L11 23ZM14 23L14 24L15 24L15 23ZM27 26L27 27L28 27L28 26ZM29 26L29 27L30 27L30 26ZM14 27L14 28L15 28L15 27ZM16 28L16 29L17 29L17 28ZM29 29L29 32L32 32L32 29ZM30 30L30 31L31 31L31 30ZM34 30L34 32L35 32L35 33L36 33L36 31L35 31L35 30ZM8 32L8 37L11 37L11 36L9 36L9 32ZM24 33L24 34L22 34L22 35L24 35L24 36L26 36L26 35L28 35L28 33L26 33L26 34L25 34L25 33ZM31 33L31 34L29 34L29 35L31 35L31 34L32 34L32 36L36 36L36 35L33 35L33 34L34 34L34 33L33 33L33 34L32 34L32 33ZM14 35L14 36L16 36L16 35ZM0 0L0 7L7 7L7 0ZM1 1L1 6L6 6L6 1ZM2 2L2 5L5 5L5 2ZM30 0L30 7L37 7L37 0ZM31 1L31 6L36 6L36 1ZM32 2L32 5L35 5L35 2ZM0 30L0 37L7 37L7 30ZM1 31L1 36L6 36L6 31ZM2 32L2 35L5 35L5 32Z" fill="#000000"/></g></g></svg>
